<?xml version="1.0" encoding="utf-8"?>
<!-- Generator: Adobe Illustrator 16.0.0, SVG Export Plug-In . SVG Version: 6.00 Build 0)  -->
<!DOCTYPE svg PUBLIC "-//W3C//DTD SVG 1.1//EN" "http://www.w3.org/Graphics/SVG/1.1/DTD/svg11.dtd">
<svg version="1.1" id="Layer_1" xmlns="http://www.w3.org/2000/svg" xmlns:xlink="http://www.w3.org/1999/xlink" x="0px" y="0px"
	 width="200px" height="200px" viewBox="0 0 200 200" enable-background="new 0 0 200 200" xml:space="preserve">
<path fill="#CECECE" d="M174.901,74.659c-5.637,0-10.211,4.574-10.211,10.19c0,5.614,4.574,10.19,10.211,10.19
	c5.613,0,10.188-4.576,10.188-10.19C185.088,79.231,180.515,74.659,174.901,74.659z"/>
<path fill="#CECECE" d="M28.396,74.659c-5.636,0-10.211,4.574-10.211,10.19c0,5.614,4.576,10.19,10.211,10.19
	c5.614,0,10.19-4.576,10.19-10.19C38.586,79.231,34.011,74.659,28.396,74.659z"/>
<path fill="#CECECE" d="M144.574,56.122c-8.367,0-15.151,6.808-15.151,15.176c0,8.358,6.784,15.154,15.151,15.154
	c8.368,0,15.175-6.796,15.175-15.154C159.747,62.931,152.942,56.122,144.574,56.122z"/>
<path fill="#CECECE" d="M191.638,148.345h-17.279v-31.803c0-5.475-1.604-10.548-4.184-14.96c1.52-0.442,3.08-0.76,4.727-0.76
	c9.213,0,16.736,7.523,16.736,16.761V148.345z"/>
<path fill="#CECECE" d="M58.702,56.122c-8.368,0-15.176,6.808-15.176,15.176c0,8.358,6.806,15.154,15.176,15.154
	c8.347,0,15.152-6.796,15.152-15.154C73.854,62.931,67.05,56.122,58.702,56.122z"/>
<path fill="#CECECE" d="M28.396,100.822c1.647,0,3.188,0.316,4.703,0.76c-2.601,4.412-4.183,9.485-4.183,14.96v31.803H11.638
	v-30.762C11.638,108.347,19.16,100.822,28.396,100.822z"/>
<path fill="#CECECE" d="M101.627,25.815c-12.357,0-22.416,10.058-22.416,22.416c0,12.368,10.058,22.437,22.416,22.437
	c12.357,0,22.437-10.07,22.437-22.438C124.063,35.874,113.984,25.815,101.627,25.815z"/>
<path fill="#CECECE" d="M168.808,160.181h-26.47v-48.385c0-6.655-1.756-12.846-4.596-18.396c2.17-0.639,4.443-1.094,6.828-1.094
	c13.355,0,24.236,10.873,24.236,24.236L168.808,160.181L168.808,160.181z"/>
<path fill="#CECECE" d="M60.915,111.796v48.385H34.466v-43.639c0-13.366,10.861-24.238,24.237-24.238
	c2.384,0,4.639,0.456,6.806,1.094C62.672,98.95,60.915,105.138,60.915,111.796z"/>
<path fill="#CECECE" d="M66.464,174.185h70.325v-62.391c0-19.391-15.784-35.164-35.162-35.164
	c-19.402,0-35.163,15.772-35.163,35.164V174.185z"/>
</svg>
