<?xml version="1.0" encoding="utf-8"?>
<!-- Generator: Adobe Illustrator 16.0.0, SVG Export Plug-In . SVG Version: 6.00 Build 0)  -->
<!DOCTYPE svg PUBLIC "-//W3C//DTD SVG 1.1//EN" "http://www.w3.org/Graphics/SVG/1.1/DTD/svg11.dtd">
<svg version="1.1" id="Layer_1" xmlns="http://www.w3.org/2000/svg" xmlns:xlink="http://www.w3.org/1999/xlink" x="0px" y="0px"
	 width="200px" height="200px" viewBox="0 0 200 200" enable-background="new 0 0 200 200" xml:space="preserve">
<path fill="#CECECE" d="M89.592,86.777c1.89-0.509,3.008-2.441,2.499-4.322c-0.507-1.891-2.44-3-4.314-2.5
	c-1.89,0.506-3.005,2.441-2.5,4.322C85.778,86.161,87.71,87.284,89.592,86.777z"/>
<path fill="#CECECE" d="M110.403,86.777c1.878,0.507,3.813-0.617,4.319-2.5c0.512-1.881-0.613-3.816-2.498-4.322
	c-1.872-0.5-3.813,0.606-4.325,2.491C107.401,84.336,108.52,86.269,110.403,86.777z"/>
<path fill="#CECECE" d="M128.412,92.182c-1.375,1.384-1.375,3.608,0,4.991c1.387,1.384,3.616,1.384,4.996,0
	c1.37-1.382,1.37-3.606,0-4.991C132.028,90.8,129.799,90.8,128.412,92.182z"/>
<path fill="#CECECE" d="M143.133,117.69c1.893-0.503,3.008-2.449,2.502-4.323c-0.502-1.881-2.431-3.003-4.318-2.501
	c-1.889,0.511-2.997,2.44-2.504,4.329C139.325,117.084,141.258,118.188,143.133,117.69z"/>
<path fill="#CECECE" d="M143.141,133.493c-1.883-0.499-3.815,0.616-4.332,2.502c-0.492,1.886,0.615,3.815,2.507,4.325
	c1.883,0.508,3.812-0.607,4.315-2.502C146.141,135.945,145.024,133.999,143.141,133.493z"/>
<path fill="#CECECE" d="M128.412,154.018c-1.375,1.369-1.375,3.609,0,4.984c1.387,1.385,3.616,1.385,4.996,0
	c1.37-1.375,1.37-3.615,0-4.984C132.028,152.629,129.799,152.629,128.412,154.018z"/>
<path fill="#CECECE" d="M110.403,164.418c-1.884,0.496-3.002,2.43-2.504,4.313c0.512,1.893,2.433,2.997,4.325,2.502
	c1.885-0.502,3.009-2.438,2.498-4.323C114.217,165.03,112.284,163.909,110.403,164.418z"/>
<path fill="#CECECE" d="M89.592,164.418c-1.882-0.511-3.815,0.608-4.315,2.492c-0.509,1.883,0.61,3.821,2.5,4.323
	c1.875,0.497,3.809-0.622,4.314-2.502C92.6,166.853,91.483,164.914,89.592,164.418z"/>
<path fill="#CECECE" d="M66.592,154.018c-1.383,1.369-1.383,3.609,0,4.984c1.373,1.385,3.608,1.385,4.989,0
	c1.375-1.375,1.375-3.615,0-4.984C70.2,152.629,67.965,152.629,66.592,154.018z"/>
<path fill="#CECECE" d="M56.862,133.504c-1.883,0.5-3.009,2.432-2.5,4.314c0.507,1.893,2.441,2.997,4.324,2.502
	c1.883-0.51,2.999-2.438,2.5-4.325C60.676,134.109,58.744,132.994,56.862,133.504z"/>
<path fill="#CECECE" d="M56.862,117.69c1.882,0.498,3.813-0.606,4.324-2.495c0.499-1.887-0.617-3.818-2.5-4.329
	c-1.883-0.503-3.817,0.617-4.324,2.501C53.854,115.241,54.979,117.189,56.862,117.69z"/>
<path fill="#CECECE" d="M106.747,118.85c-0.428-0.418-0.876-0.773-1.35-1.096l0.041-0.054L71.583,92.182
	c-1.382-1.382-3.615-1.382-4.988,0c-1.383,1.384-1.383,3.608,0,4.991l25.513,33.856l0.05-0.046c0.325,0.479,0.684,0.929,1.101,1.35
	c3.722,3.72,9.759,3.72,13.489,0C110.45,128.612,110.45,122.573,106.747,118.85z"/>
<path fill="#CECECE" d="M155.271,79.22l3.555-3.555l1.233,1.233c1.031,1.033,2.71,1.033,3.731,0l4.664-4.657
	c1.023-1.034,1.023-2.705,0-3.731l-0.024-0.026L157.329,57.38h-0.011c-1.023-1.034-2.699-1.034-3.73,0l-4.656,4.657
	c-1.035,1.033-1.035,2.701,0,3.732l1.209,1.207l-3.541,3.541c-8.348-7.064-18.31-12.272-29.262-14.97
	c6.196-5.034,10.151-12.705,10.151-21.319c0-15.186-12.308-27.49-27.492-27.49c-15.177,0-27.489,12.304-27.489,27.49
	c0,8.614,3.964,16.287,10.153,21.319c-10.945,2.7-20.91,7.905-29.256,14.972l-3.541-3.542l1.199-1.207
	c1.026-1.034,1.026-2.699,0-3.732l-4.665-4.657c-1.024-1.033-2.69-1.033-3.724,0l0,0L31.57,68.484l-0.016,0.023
	c-1.041,1.026-1.041,2.699,0,3.733l4.649,4.656c1.034,1.034,2.709,1.034,3.733,0l1.241-1.234l3.558,3.557
	c-10.531,12.548-16.88,28.72-16.88,46.373c0,39.85,32.297,72.146,72.142,72.146c39.843,0,72.148-32.298,72.148-72.146
	C172.146,107.939,165.809,91.767,155.271,79.22z M81.521,34.229c0-10.203,8.271-18.478,18.476-18.478
	c10.205,0,18.482,8.275,18.482,18.478c0,7.999-5.089,14.802-12.181,17.379V39.801h1.736c1.457,0,2.639-1.182,2.639-2.641v-6.588
	c0-1.46-1.182-2.64-2.639-2.64H108H92.308H92.3c-1.458,0-2.64,1.183-2.64,2.64v6.588c0,1.458,1.182,2.641,2.64,2.641H94v11.906
	C86.744,49.215,81.521,42.334,81.521,34.229z M99.997,180.122c-30.022,0-54.356-24.339-54.356-54.364
	c0-30.015,24.333-54.358,54.356-54.358c30.017,0,54.356,24.344,54.356,54.358C154.354,155.783,130.014,180.122,99.997,180.122z"/>
</svg>
