<?xml version="1.0" encoding="utf-8"?>
<!-- Generator: Adobe Illustrator 17.0.0, SVG Export Plug-In . SVG Version: 6.00 Build 0)  -->
<!DOCTYPE svg PUBLIC "-//W3C//DTD SVG 1.1//EN" "http://www.w3.org/Graphics/SVG/1.1/DTD/svg11.dtd">
<svg version="1.1" id="圖層_1" xmlns="http://www.w3.org/2000/svg" xmlns:xlink="http://www.w3.org/1999/xlink" x="0px" y="0px"
	 width="1417.32px" height="1417.32px" viewBox="0 0 1417.32 1417.32" enable-background="new 0 0 1417.32 1417.32"
	 xml:space="preserve">
<path fill="#F29518" d="M-992.303,1682.594c-202.67,0-366.966,164.296-366.966,366.966s164.296,366.966,366.966,366.966
	s366.966-164.296,366.966-366.966S-789.633,1682.594-992.303,1682.594z M-996.697,2210.76h-70.772v-155.419h-19.885v155.419h-70.772
	v-323.795h70.772v128.596h19.885v-128.596h70.772V2210.76z M-826.479,2000.753h-64.294v-64.705c0-2.786-0.813-4.806-2.421-6.049
	c-1.617-1.244-4.198-1.86-7.75-1.86c-3.543,0-6.208,0.617-7.984,1.851c-1.776,1.243-2.655,3.253-2.655,6.039v225.667
	c0,2.487,1.047,4.422,3.141,5.806c2.094,1.393,4.6,2.094,7.498,2.094c3.552,0,6.133-0.701,7.75-2.094
	c1.608-1.393,2.421-3.329,2.421-5.815v-80.449h64.294v82.337c0,12.649-6.171,23.906-18.502,33.769
	c-14.183,11.415-32.535,17.118-55.047,17.118c-24.046,0-43.473-4.777-58.282-14.342c-16.034-10.48-24.046-25.13-24.046-43.941
	v-208.615c0-20.661,5.853-35.928,17.576-45.801c13.565-11.397,35.152-17.109,64.751-17.109c25.598,0,44.716,5.712,57.366,17.109
	c10.789,9.873,16.183,23.288,16.183,40.248V2000.753z"/>
<g>
	<path fill="#F29518" d="M-906.287,1930.662c-4.02-1.683-9.564-2.524-16.632-2.524v86.956c7.386,0,12.21-0.449,14.463-1.374
		c5.469-2.449,8.199-7.666,8.199-15.641v-52.925C-900.257,1937.188-902.267,1932.355-906.287,1930.662z"/>
	<path fill="#F29518" d="M-992.303,1682.594c-202.67,0-366.966,164.296-366.966,366.966s164.296,366.966,366.966,366.966
		c202.669,0,366.966-164.296,366.966-366.966S-789.633,1682.594-992.303,1682.594z M-1009.884,2000.752h-64.293v-64.704
		c0-2.786-0.813-4.806-2.422-6.049c-1.617-1.244-4.198-1.861-7.75-1.861c-3.543,0-6.208,0.617-7.984,1.851
		c-1.776,1.243-2.655,3.253-2.655,6.039v225.667c0,2.487,1.047,4.422,3.141,5.806c2.094,1.393,4.6,2.094,7.498,2.094
		c3.553,0,6.133-0.701,7.75-2.094c1.608-1.393,2.422-3.329,2.422-5.815v-80.448h64.293v82.337c0,12.649-6.17,23.906-18.502,33.769
		c-14.183,11.415-32.535,17.118-55.047,17.118c-24.046,0-43.473-4.777-58.282-14.342c-16.034-10.48-24.046-25.13-24.046-43.94
		v-208.615c0-20.661,5.852-35.928,17.576-45.801c13.565-11.396,35.152-17.109,64.751-17.109c25.598,0,44.717,5.712,57.366,17.109
		c10.789,9.873,16.183,23.289,16.183,40.248V2000.752z M-889.617,2210.76c-4.011-4.628-6.787-11.481-8.33-20.587
		c-1.543-9.087-2.309-21.97-2.309-38.621v-79.561c0-8.012-2.01-12.874-6.03-14.575c-4.02-1.683-9.564-2.543-16.632-2.543v155.886
		h-70.772v-323.795h87.881c23.429,0,41.706,5.217,54.813,15.66c13.107,10.433,19.661,24.242,19.661,41.416v38.668
		c0,10.742-1.683,19.035-5.048,24.859c-6.133,10.742-18.997,19.334-38.602,25.775c18.072,4.637,30.478,11.892,37.219,21.774
		c4.282,6.489,6.432,15.445,6.432,26.869v69.94c0.617,11.434,1.225,20.082,1.851,25.953c2.15,18.212,5.703,29.178,10.639,32.881
		H-889.617z"/>
</g>
<g>
	<path fill="#F29518" d="M-711.088,2058.898c0-2.85-0.613-4.981-1.84-6.4c-1.22-1.418-3.06-2.131-5.514-2.131
		c-2.044,0-3.785,0.712-5.21,2.131c-1.431,1.419-2.15,3.55-2.15,6.4v39.593h14.713V2058.898z"/>
	<path fill="#F29518" d="M-1152.763,2050.368c-2.044,0-3.779,0.712-5.21,2.137c-1.431,1.431-2.143,3.568-2.143,6.424v106.097
		c0,2.856,0.613,5.043,1.84,6.573c1.226,1.53,3.066,2.292,5.513,2.292c2.454,0,4.293-0.762,5.52-2.292
		c1.227-1.53,1.84-3.717,1.84-6.573v-106.097c0-2.856-0.613-4.993-1.84-6.424
		C-1148.469,2051.08-1150.309,2050.368-1152.763,2050.368z"/>
	<path fill="#F29518" d="M-1037.416,1978.56c1.527,0,2.786-0.495,3.781-1.49c0.99-0.991,1.486-2.476,1.486-4.467v-33.431
		c-4.276,1.069-7.179,2.37-8.701,3.892c-1.527,1.527-2.291,3.513-2.291,5.952v23.586c0,1.99,0.495,3.476,1.49,4.467
		C-1040.661,1978.065-1039.249,1978.56-1037.416,1978.56z"/>
	<path fill="#F29518" d="M-992.303,1682.593c-202.67,0-366.966,164.296-366.966,366.966s164.296,366.966,366.966,366.966
		s366.966-164.296,366.966-366.966S-789.633,1682.593-992.303,1682.593z M-1074.971,1952.224c0-10.382,7.137-19.009,21.411-25.878
		c14.274-6.869,21.411-11.677,21.411-14.427v-19.236c0-2.138-0.449-3.74-1.342-4.809c-0.898-1.065-2.245-1.602-4.036-1.602
		c-1.5,0-2.773,0.537-3.819,1.602c-1.041,1.069-1.564,2.67-1.564,4.809v25.646h-30.918v-25.873c0-9.618,3.897-16.639,11.682-21.069
		c6.258-3.513,15.033-5.267,26.336-5.267c11.294,0,19.768,1.911,25.419,5.725c6.716,4.429,10.076,11.678,10.076,21.754v103.279
		h-28.169v-5.036c-1.527,2.897-3.86,4.772-6.984,5.61c-3.133,0.838-7.595,1.259-13.399,1.259c-9.465,0-16.181-1.685-20.152-5.041
		c-3.971-3.356-5.952-8.47-5.952-15.343V1952.224z M-1162.217,1836.579h35.037v63.664h9.845v-63.664h35.037v160.301h-35.037v-76.943
		h-9.845v76.943h-35.037V1836.579z M-1212.836,2059.251h-42.604v-42.876c0-1.846-0.539-3.184-1.605-4.008
		c-1.072-0.824-2.781-1.233-5.136-1.233c-2.348,0-4.113,0.409-5.291,1.227c-1.177,0.824-1.759,2.156-1.759,4.002V2165.9
		c0,1.648,0.694,2.93,2.082,3.847c1.388,0.923,3.048,1.388,4.968,1.388c2.354,0,4.064-0.465,5.136-1.388
		c1.066-0.923,1.605-2.205,1.605-3.853v-53.309h42.604v54.56c0,8.382-4.089,15.841-12.26,22.377
		c-9.398,7.564-21.559,11.343-36.477,11.343c-15.934,0-28.807-3.166-38.62-9.503c-10.625-6.945-15.934-16.652-15.934-29.117
		v-138.238c0-13.691,3.878-23.808,11.647-30.35c8.989-7.552,23.293-11.337,42.907-11.337c16.962,0,29.631,3.785,38.013,11.337
		c7.149,6.542,10.724,15.432,10.724,26.67V2059.251z M-1102.799,2165.615c0,13.078-4.906,22.482-14.713,28.2
		c-7.967,4.696-19.515,7.05-34.637,7.05c-15.327,0-27.178-2.552-35.554-7.663c-10.017-6.133-15.017-15.835-15.017-29.117v-103.911
		c0-13.078,4.999-22.681,15.017-28.814c8.58-5.309,20.432-7.967,35.554-7.967c13.895,0,25.598,3.017,35.095,9.039
		c9.503,6.034,14.255,14.769,14.255,26.211V2165.615z M-995.214,2198.412h-42.61v-5.898c-2.249,2.273-5.668,4.231-10.265,5.879
		c-4.597,1.642-9.962,2.472-16.095,2.472c-8.995,0-16.398-2.354-22.222-7.05c-5.823-4.702-8.735-10.42-8.735-17.167v-152.028h42.604
		v141.007c0,5.309,2.453,7.954,7.36,7.954c2.453,0,4.293-0.656,5.514-1.982c1.227-1.326,1.84-3.209,1.84-5.662v-141.317h42.61
		V2198.412z M-992.761,1971.233v-77.633c0-9.77,3.74-16.945,11.219-21.527c6.415-3.967,15.265-5.952,26.567-5.952
		c10.993,0,19.541,1.754,25.646,5.267c7.479,4.272,11.224,11.298,11.224,21.069v32.056h-31.835v-31.83
		c0-2.138-0.458-3.74-1.375-4.809c-0.912-1.065-2.287-1.602-4.119-1.602c-1.527,0-2.828,0.532-3.892,1.597
		c-1.069,1.069-1.606,2.666-1.606,4.8v79.266c0,2.134,0.458,3.768,1.375,4.911s2.291,1.712,4.124,1.712s3.207-0.569,4.119-1.708
		c0.916-1.139,1.375-2.768,1.375-4.892v-31.186h31.835v31.603c0,9.771-3.666,16.797-10.993,21.068
		c-5.957,3.508-14.584,5.267-25.878,5.267c-11.451,0-20.305-1.907-26.567-5.725
		C-989.021,1988.405-992.761,1981.157-992.761,1971.233z M-885.487,2096.651h-42.61v-37.957c0-5.346-2.453-8.023-7.353-8.023
		c-2.453,0-4.293,0.619-5.52,1.846c-1.227,1.227-1.84,3.172-1.84,5.829v140.065h-42.604v-173.792h42.604v5.743
		c2.453-2.02,5.978-3.686,10.575-4.999c4.597-1.313,9.857-1.97,15.785-1.97c8.989,0,16.399,2.404,22.222,7.199
		c5.823,4.807,8.741,10.68,8.741,17.625V2096.651z M-879.411,1996.88h-31.83v-160.301h31.83v72.134l16.491-41.674h32.746
		l-22.902,56.934l30.687,72.907h-37.328l-19.694-46.946V1996.88z M-776.979,2164.085c0,13.078-5.012,22.68-15.023,28.807
		c-8.58,5.322-20.438,7.973-35.554,7.973c-14.713,0-26.162-2.354-34.333-7.05c-10.012-5.718-15.017-15.122-15.017-28.2v-37.09
		h42.604v36.533c0,2.85,0.626,5.024,1.877,6.548c1.258,1.524,3.035,2.286,5.334,2.286c2.292,0,4.015-0.762,5.167-2.286
		c1.152-1.524,1.722-3.698,1.722-6.542v-13.394c0-11.771-2.862-19.384-8.58-22.835c-7.769-4.089-15.017-7.973-21.764-11.647
		c-10.011-5.52-16.758-10.469-20.227-14.868c-3.482-4.392-5.21-10.674-5.21-18.852v-23.293c0-13.078,4.795-22.681,14.404-28.814
		c8.376-5.309,20.122-7.967,35.25-7.967c14.713,0,26.05,2.348,34.024,7.05c9.602,5.718,14.404,15.122,14.404,28.2v34.327h-41.991
		v-34.024c0-2.652-0.688-4.752-2.057-6.282c-1.369-1.536-2.936-2.298-4.69-2.298c-1.964,0-3.624,0.719-4.993,2.143
		c-1.369,1.431-2.057,3.575-2.057,6.437v16.244c0,7.155,2.961,12.675,8.89,16.553l16.553,8.89
		c12.056,6.338,19.508,10.935,22.377,13.79c5.923,5.724,8.89,13.592,8.89,23.604V2164.085z M-723.961,2171.606
		c1.226,1.524,3.066,2.286,5.52,2.286s4.293-0.756,5.514-2.28c1.227-1.524,1.84-3.705,1.84-6.548v-34.699h42.61v35.25
		c0,12.874-5.111,22.278-15.327,28.2c-8.177,4.696-19.824,7.05-34.947,7.05s-26.769-2.552-34.94-7.663
		c-9.807-6.133-14.713-15.835-14.713-29.117v-103.911c0-13.078,4.801-22.681,14.41-28.814c8.376-5.309,20.122-7.967,35.244-7.967
		c14.918,0,26.565,2.348,34.947,7.05c10.216,5.718,15.327,15.122,15.327,28.2v66.207h-57.323v40.206
		C-725.801,2167.907-725.188,2170.082-723.961,2171.606z"/>
</g>
<g>
	<path fill="#F29518" d="M-1172.974,2143.75v28.761c0,2.427,0.604,4.239,1.817,5.446c1.208,1.213,2.929,1.817,5.164,1.817
		c1.862,0,3.398-0.604,4.611-1.817c1.208-1.208,1.812-3.02,1.812-5.446v-40.766c-5.215,1.304-8.754,2.89-10.61,4.747
		C-1172.043,2138.355-1172.974,2140.776-1172.974,2143.75z"/>
	<path fill="#F29518" d="M-992.303,1682.594c-202.67,0-366.966,164.296-366.966,366.966s164.296,366.966,366.966,366.966
		s366.966-164.296,366.966-366.966S-789.633,1682.594-992.303,1682.594z M-992.761,1907.655c0-9.771,3.74-16.945,11.219-21.527
		c6.415-3.966,15.264-5.952,26.567-5.952c10.993,0,19.541,1.754,25.646,5.267c7.479,4.272,11.224,11.298,11.224,21.069v32.056
		h-31.835v-31.83c0-2.138-0.458-3.74-1.375-4.809c-0.912-1.065-2.286-1.601-4.119-1.601c-1.527,0-2.828,0.532-3.892,1.597
		c-1.069,1.069-1.606,2.666-1.606,4.8v79.266c0,2.134,0.458,3.767,1.375,4.911c0.916,1.143,2.291,1.712,4.124,1.712
		c1.833,0,3.208-0.569,4.119-1.708c0.916-1.139,1.375-2.768,1.375-4.892v-31.186h31.835v31.603c0,9.771-3.666,16.797-10.993,21.069
		c-5.957,3.508-14.584,5.267-25.878,5.267c-11.451,0-20.305-1.907-26.567-5.725c-7.48-4.582-11.219-11.83-11.219-21.754V1907.655z
		 M-1074.971,1966.279c0-10.382,7.137-19.009,21.411-25.878c14.274-6.869,21.411-11.678,21.411-14.427v-19.236
		c0-2.138-0.449-3.74-1.342-4.809c-0.898-1.065-2.245-1.601-4.036-1.601c-1.5,0-2.773,0.537-3.819,1.601
		c-1.041,1.069-1.564,2.671-1.564,4.809v25.646h-30.918v-25.873c0-9.618,3.897-16.639,11.682-21.069
		c6.257-3.513,15.033-5.267,26.336-5.267c11.293,0,19.768,1.912,25.419,5.725c6.716,4.429,10.076,11.678,10.076,21.754v103.279
		h-28.169v-5.036c-1.528,2.897-3.86,4.772-6.984,5.61c-3.133,0.838-7.595,1.259-13.399,1.259c-9.465,0-16.181-1.685-20.152-5.04
		c-3.971-3.356-5.952-8.47-5.952-15.343V1966.279z M-1221.28,2075.334h-38.814v-39.062c0-1.682-0.491-2.901-1.462-3.652
		c-0.976-0.751-2.534-1.123-4.679-1.123c-2.139,0-3.748,0.373-4.82,1.117c-1.072,0.751-1.603,1.964-1.603,3.646v136.234
		c0,1.501,0.632,2.67,1.896,3.505c1.264,0.841,2.777,1.264,4.526,1.264c2.145,0,3.703-0.423,4.679-1.264
		c0.971-0.841,1.462-2.009,1.462-3.51v-48.566h38.814v49.706c0,7.636-3.725,14.432-11.17,20.386
		c-8.562,6.891-19.641,10.334-33.232,10.334c-14.516,0-26.244-2.884-35.184-8.658c-9.679-6.327-14.516-15.171-14.516-26.527
		v-125.939c0-12.473,3.533-21.69,10.611-27.65c8.189-6.88,21.221-10.328,39.09-10.328c15.453,0,26.995,3.448,34.631,10.328
		c6.513,5.96,9.77,14.059,9.77,24.297V2075.334z M-1120.75,2202.115h-34.349v-6.141c-1.862,3.533-4.707,5.819-8.517,6.84
		c-3.821,1.022-9.262,1.535-16.339,1.535c-11.542,0-19.731-2.054-24.574-6.146c-4.843-4.092-7.258-10.328-7.258-18.709v-31.832
		c0-12.659,8.703-23.18,26.109-31.555c17.406-8.375,26.109-14.24,26.109-17.592v-23.456c0-2.608-0.547-4.56-1.637-5.864
		c-1.095-1.298-2.737-1.953-4.922-1.953c-1.829,0-3.381,0.655-4.656,1.953c-1.27,1.304-1.908,3.256-1.908,5.864v31.273h-37.702
		v-31.55c0-11.728,4.752-20.29,14.245-25.691c7.631-4.284,18.332-6.423,32.114-6.423c13.771,0,24.105,2.331,30.997,6.981
		c8.189,5.401,12.287,14.24,12.287,26.527V2202.115z M-1127.18,1933.991v76.943h-35.037v-160.301h35.037v63.664h9.845v-63.664
		h35.037v160.301h-35.037v-76.943H-1127.18z M-968.285,2202.115h-38.819v-126.763c0-4.848-2.229-7.275-6.7-7.275
		c-2.235,0-3.911,0.564-5.029,1.682c-1.112,1.117-1.671,2.89-1.671,5.311v127.045h-38.819v-127.045c0-4.848-2.235-7.27-6.7-7.27
		c-2.235,0-3.911,0.559-5.029,1.676c-1.118,1.123-1.676,2.895-1.676,5.317v127.322h-38.814v-158.33h38.814v5.509
		c2.235-1.84,5.537-3.403,9.916-4.696c4.369-1.287,9.076-1.93,14.099-1.93c7.264,0,12.383,0.92,15.363,2.76
		c3.533,3.132,6.603,5.802,9.211,8.009c1.676-2.021,5.351-4.323,11.034-6.903c5.672-2.574,11.311-3.866,16.892-3.866
		c8.003,0,14.663,2.28,19.968,6.841c5.305,4.566,7.958,9.911,7.958,16.057V2202.115z M-868.037,2182.287
		c0,6.146-2.613,11.356-7.822,15.64c-5.215,4.278-12.005,6.423-20.386,6.423c-5.21,0-9.962-0.559-14.24-1.676
		c-4.284-1.117-7.54-2.511-9.775-4.188v37.137h-38.813v-191.838h29.32l3.352,6.423c2.602-2.049,4.927-3.539,6.982-4.47
		c4.092-2.049,9.307-3.07,15.64-3.07c11.169,0,20.104,2.884,26.803,8.652c5.96,5.029,8.94,10.802,8.94,17.316V2182.287z
		 M-879.411,1963.988v46.946h-31.83v-160.301h31.83v72.134l16.491-41.674h32.746l-22.902,56.934l30.687,72.907h-37.328
		L-879.411,1963.988z M-768.63,2202.115h-38.819v-5.373c-2.049,2.071-5.164,3.855-9.352,5.356
		c-4.188,1.496-9.076,2.252-14.663,2.252c-8.195,0-14.939-2.145-20.245-6.423c-5.306-4.284-7.958-9.493-7.958-15.64v-138.502h38.813
		v128.462c0,4.837,2.235,7.247,6.705,7.247c2.235,0,3.911-0.598,5.023-1.806c1.117-1.208,1.676-2.924,1.676-5.159v-128.744h38.819
		V2202.115z M-682.91,2197.085c-7.817,4.848-18.619,7.264-32.391,7.264c-13.404,0-23.834-2.145-31.279-6.423
		c-9.12-5.21-13.681-13.777-13.681-25.691v-33.791h38.814v33.283c0,2.596,0.57,4.577,1.71,5.966c1.146,1.388,2.766,2.083,4.86,2.083
		c2.088,0,3.657-0.694,4.707-2.083c1.05-1.388,1.569-3.37,1.569-5.96v-12.202c0-10.723-2.608-17.66-7.817-20.804
		c-7.077-3.725-13.681-7.264-19.827-10.61c-9.121-5.029-15.267-9.538-18.428-13.546c-3.172-4.001-4.746-9.724-4.746-17.174v-21.221
		c0-11.914,4.368-20.663,13.122-26.25c7.631-4.837,18.331-7.258,32.114-7.258c13.404,0,23.733,2.139,30.996,6.423
		c8.748,5.209,13.122,13.777,13.122,25.691v31.273h-38.254v-30.997c0-2.416-0.627-4.329-1.874-5.723
		c-1.247-1.4-2.675-2.094-4.272-2.094c-1.789,0-3.302,0.655-4.549,1.953c-1.247,1.304-1.874,3.256-1.874,5.864v14.799
		c0,6.519,2.698,11.547,8.099,15.08l15.08,8.099c10.983,5.774,17.773,9.961,20.386,12.563c5.396,5.215,8.099,12.383,8.099,21.504
		v23.738C-669.223,2182.756-673.789,2191.504-682.91,2197.085z"/>
	<path fill="#F29518" d="M-913.556,2067.241c-2.235,0-3.911,0.604-5.029,1.812c-1.117,1.213-1.676,3.031-1.676,5.446v98.295
		c0,2.235,0.604,3.956,1.817,5.164c1.208,1.213,2.833,1.817,4.888,1.817c4.464,0,6.7-2.416,6.7-7.264v-98.013
		C-906.856,2069.662-909.091,2067.241-913.556,2067.241z"/>
	<path fill="#F29518" d="M-1037.416,1992.615c1.527,0,2.786-0.495,3.781-1.49c0.99-0.99,1.486-2.476,1.486-4.466v-33.431
		c-4.276,1.069-7.179,2.37-8.701,3.893c-1.527,1.527-2.291,3.513-2.291,5.952v23.586c0,1.99,0.495,3.476,1.49,4.466
		C-1040.66,1992.12-1039.249,1992.615-1037.416,1992.615z"/>
</g>
<g>
	<path fill="#F29518" d="M-1072.995,2056.091c-3.443-1.654-8.458-2.489-15.044-2.489v113.28c6.895,0,11.283-0.454,13.164-1.363
		c4.706-2.398,7.059-7.513,7.059-15.335V2070.3C-1067.816,2062.487-1069.542,2057.745-1072.995,2056.091z"/>
	<path fill="#F29518" d="M-904.07,1934.044c-2.507-1.199-7.05-1.799-13.618-1.799v234.636c7.204,0,11.738-0.454,13.618-1.363
		c4.706-2.398,7.05-7.513,7.05-15.335v-201.249C-897.02,1941.421-899.364,1936.452-904.07,1934.044z"/>
	<path fill="#F29518" d="M-1072.995,1934.717c-3.443-1.644-8.458-2.471-15.044-2.471v86.752c6.895,0,11.283-0.454,13.164-1.354
		c4.706-2.389,7.059-7.486,7.059-15.281v-53.492C-1067.816,1941.085-1069.542,1936.361-1072.995,1934.717z"/>
	<path fill="#F29518" d="M-992.303,1692.961c-196.943,0-356.598,159.654-356.598,356.598c0,196.944,159.655,356.598,356.598,356.598
		c196.944,0,356.598-159.654,356.598-356.598C-635.705,1852.616-795.359,1692.961-992.303,1692.961z M-1000.843,2144.778
		c0,17.706-5.551,32.106-16.635,43.208c-12.283,12.601-29.662,18.896-52.138,18.896h-87.197v-314.647h81.355
		c22.767,0,40.528,5.097,53.265,15.263c12.728,10.175,19.105,23.639,19.105,40.401v43.535c0,9.585-1.944,17.507-5.805,23.793
		c-6.25,9.584-17.706,17.207-34.368,22.894c17.561,4.497,29.626,11.401,36.167,20.705c4.161,5.996,6.25,14.245,6.25,24.747V2144.778
		z M-827.793,2144.769c0,17.361-5.996,31.733-17.979,43.108c-13.191,12.673-31.016,19.005-53.492,19.005h-87.197v-314.647h86.752
		c22.467,0,40.301,6.187,53.483,18.561c12.283,11.374,18.433,25.901,18.433,43.553V2144.769z"/>
</g>
<g>
	<path fill="#F29518" d="M-1116.221,1934.044c-2.508-1.199-7.05-1.799-13.618-1.799v234.636c7.204,0,11.738-0.454,13.618-1.363
		c4.706-2.398,7.05-7.513,7.05-15.335v-201.249C-1109.171,1941.421-1111.515,1936.452-1116.221,1934.044z"/>
	<path fill="#F29518" d="M-992.303,1692.961c-196.944,0-356.598,159.654-356.598,356.598c0,196.944,159.654,356.598,356.598,356.598
		s356.598-159.654,356.598-356.598C-635.705,1852.616-795.359,1692.961-992.303,1692.961z M-1039.944,2144.769
		c0,17.361-5.996,31.733-17.979,43.108c-13.191,12.674-31.016,19.006-53.492,19.006h-87.197v-314.647h86.752
		c22.467,0,40.301,6.187,53.483,18.561c12.283,11.374,18.433,25.901,18.433,43.553V2144.769z M-785.994,2206.882h-62.032v-176.647
		l-35.813,176.647h-47.478l-41.218-176.647v176.647h-54.382v-314.647h89.441l31.243,163.165l28.091-163.165h92.148V2206.882z"/>
</g>
<g>
	<path fill="#F29518" d="M-909.689,1934.044c-2.508-1.199-7.05-1.799-13.618-1.799v234.636c7.205,0,11.738-0.454,13.618-1.363
		c4.706-2.398,7.05-7.513,7.05-15.335v-201.249C-902.639,1941.421-904.983,1936.452-909.689,1934.044z"/>
	<path fill="#F29518" d="M-992.303,1692.961c-196.944,0-356.598,159.654-356.598,356.598c0,196.944,159.655,356.598,356.598,356.598
		c196.943,0,356.598-159.654,356.598-356.598C-635.705,1852.616-795.359,1692.961-992.303,1692.961z M-1005.108,1932.691h-38.656
		v274.191h-68.772v-274.191h-38.656v-40.455h146.085V1932.691z M-833.412,2144.769c0,17.361-5.996,31.733-17.979,43.108
		c-13.191,12.673-31.016,19.005-53.492,19.005h-87.197v-314.647h86.752c22.467,0,40.301,6.187,53.483,18.561
		c12.283,11.374,18.433,25.901,18.433,43.553V2144.769z"/>
</g>
<g>
	<path fill="#F29518" d="M-906.091,1933.368c-2.507-1.199-7.05-1.799-13.618-1.799v234.636c7.204,0,11.738-0.454,13.618-1.363
		c4.706-2.398,7.05-7.513,7.05-15.335v-201.249C-899.042,1940.745-901.385,1935.775-906.091,1933.368z"/>
	<path fill="#F29518" d="M-992.303,1692.961c-196.944,0-356.598,159.654-356.598,356.598c0,196.944,159.655,356.598,356.598,356.598
		c196.943,0,356.598-159.654,356.598-356.598C-635.705,1852.616-795.359,1692.961-992.303,1692.961z M-1003.318,2002.131h-62.477
		v-62.877c0-2.707-0.79-4.669-2.353-5.878c-1.572-1.208-4.079-1.808-7.531-1.808c-3.443,0-6.032,0.6-7.758,1.799
		c-1.726,1.208-2.58,3.162-2.58,5.869v219.291c0,2.417,1.017,4.297,3.052,5.642c2.035,1.354,4.47,2.035,7.286,2.035
		c3.452,0,5.96-0.681,7.531-2.035c1.563-1.354,2.353-3.234,2.353-5.651v-78.175h62.477v80.011c0,12.292-5.996,23.23-17.979,32.814
		c-13.782,11.093-31.615,16.635-53.492,16.635c-23.367,0-42.245-4.642-56.636-13.936c-15.581-10.184-23.366-24.42-23.366-42.699
		v-202.721c0-20.078,5.687-34.913,17.079-44.507c13.182-11.074,34.159-16.625,62.922-16.625c24.874,0,43.453,5.551,55.745,16.625
		c10.484,9.594,15.726,22.63,15.726,39.11V2002.131z M-829.815,2144.092c0,17.361-5.996,31.734-17.979,43.108
		c-13.191,12.673-31.016,19.006-53.492,19.006h-87.197v-314.647h86.752c22.467,0,40.301,6.187,53.483,18.56
		c12.283,11.374,18.433,25.901,18.433,43.553V2144.092z"/>
</g>
<g>
	<path fill="#F29518" d="M-906.468,1934.699c-3.907-1.635-9.294-2.453-16.162-2.453v84.499c7.177,0,11.865-0.436,14.054-1.335
		c5.315-2.38,7.967-7.45,7.967-15.199v-51.43C-900.609,1941.04-902.562,1936.343-906.468,1934.699z"/>
	<path fill="#F29518" d="M-992.303,1692.961c-196.944,0-356.598,159.654-356.598,356.598c0,196.944,159.654,356.598,356.598,356.598
		s356.598-159.654,356.598-356.598C-635.705,1852.616-795.359,1692.961-992.303,1692.961z M-1006.239,2206.882h-68.773v-151.027
		h-19.323v151.027h-68.773v-314.647h68.773v124.963h19.323v-124.963h68.773V2206.882z M-890.27,2206.882
		c-3.897-4.497-6.596-11.156-8.094-20.005c-1.499-8.83-2.244-21.349-2.244-37.529v-77.313c0-7.786-1.953-12.51-5.86-14.163
		c-3.907-1.635-9.294-2.471-16.162-2.471v151.481h-68.773v-314.647h85.398c22.767,0,40.528,5.069,53.265,15.217
		c12.737,10.139,19.106,23.557,19.106,40.246v37.575c0,10.439-1.635,18.497-4.906,24.157c-5.96,10.439-18.461,18.788-37.511,25.047
		c17.561,4.506,29.617,11.556,36.167,21.158c4.161,6.305,6.25,15.009,6.25,26.11v67.964c0.6,11.111,1.19,19.514,1.799,25.22
		c2.09,17.697,5.542,28.354,10.339,31.951H-890.27z"/>
</g>
<g>
	<path fill="#EC651A" d="M716.792,73.248c-348.362,0-630.765,282.403-630.765,630.765s282.403,630.764,630.765,630.764
		s630.764-282.403,630.764-630.764S1065.153,73.248,716.792,73.248z M1236.044,617.034c2.331,14.016,4.113,28.216,5.313,42.583
		c-3.567-4.055-8.22-9.063-14.042-15.099c-8.211-8.388-16.976-17.328-26.289-26.822c-6.658-7.109-9.985-14.44-9.985-22v-21.663
		c0-2.442,0.688-4.221,2.069-5.335c1.382-1.107,3.451-1.666,6.214-1.666c2.302,0,4.201,0.616,5.696,1.837
		c1.496,1.221,2.246,2.945,2.246,5.164v43.001H1236.044z M213.062,550.666V857.36c-14.753-48.523-22.715-100.002-22.715-153.347
		S198.309,599.189,213.062,550.666z M219.248,876.383h112.321v161.383c0,9.599,0.694,18.655,2.029,27.19
		C283.168,1011.436,243.834,947.359,219.248,876.383z M340.304,583.982c0,11.145-3.365,18.424-10.093,21.85
		c-2.69,1.284-8.965,1.927-18.826,1.927v-124.03c9.418,0,16.587,1.185,21.518,3.534c4.929,2.361,7.401,9.108,7.401,20.244V583.982z
		 M332.904,660.797c4.929,2.371,7.401,9.138,7.401,20.314v114.21c0,11.186-3.365,18.496-10.093,21.93
		c-2.69,1.295-8.965,1.937-18.826,1.937V657.243C320.804,657.243,327.972,658.428,332.904,660.797z M1014.211,1138.416V801.34
		h87.803v-17.542H906.461v17.542h86.192v351.105c-42.421,26.152-88.831,46.44-138.108,59.765V783.798h-22.363v433.942
		c-37.139,8.306-75.747,12.719-115.391,12.719c-42.943,0-84.671-5.18-124.63-14.881l0.247-414.85l26.186,64.038
		c8.307,21.927,14.018,36.389,16.975,42.988l105.215,246.174h24.831v-370.13h-18.351v203.109c0,1.57,0.512,20.875,2.944,103.924
		l0.251,36.43l-42.622-98.953l-108.787-244.51H573.81v426.998c-49.688-13.991-96.39-35.097-138.952-62.141
		c24.06-1.933,43.236-10.917,58.39-27.319c17.147-18.552,25.841-44.058,25.841-75.807V783.798h-22.361v261.732
		c0,26.775-6.471,47.86-19.235,62.671c-13.031,15.117-30.536,22.781-52.029,22.781c-7.124,0-13.777-0.809-19.951-2.408
		c-14.114-10.366-27.697-21.409-40.691-33.1c-7.216-13.637-10.892-30.354-10.892-49.945V875.538
		c24.398-2.602,43.853-11.316,58.347-26.175c15.847-15.866,23.779-36.46,23.779-61.775v-87.5c0-15.011-2.983-26.81-8.936-35.384
		c-9.36-13.295-26.599-23.167-51.704-29.602c23.818-8.123,40.196-19.029,49.133-32.724c5.524-8.989,8.294-20.325,8.294-34.021
		v-62.246c0-23.957-9.108-43.208-27.313-57.757c-18.214-14.539-43.598-21.82-76.153-21.82h-60.009
		c45.879-73.821,109.49-135.47,184.916-178.944l47.816,271.589h19.056l18.94-116.278c2.251-13.702,4.941-33.228,8.075-58.581
		l5.012,38.466l21.823,136.393h19.261L631.49,314.37h-20.556l-19.286,124.45l-6.773,47.899l-6.753-47.899l-20.995-124.45h-19.499
		l-19.107,121.365c-0.587,3.43-1.176,8.034-1.763,13.809l-4.997,37.175c-1.57-10.479-2.6-18.022-3.092-22.629
		c-1.57-13.123-2.652-21.547-3.239-25.27l-31.385-202.033c72.64-37.818,155.19-59.219,242.748-59.219
		c23.222,0,46.088,1.52,68.515,4.435h-11.106v49.091h32.576v6.099c0,6.482-0.486,13.182-1.443,19.911
		c-1.009,7.052-2.968,13.531-5.827,19.254c-2.976,5.96-6.9,10.847-11.665,14.528c-3.696,2.851-8.081,4.688-13.09,5.494v15.595
		c6.946-0.668,13.032-2.512,18.148-5.507c6.724-3.94,12.375-9.261,16.8-15.819c4.535-6.715,7.959-14.696,10.174-23.713
		c2.265-9.246,3.415-19.253,3.415-29.744V188.35c172.27,35.392,313.813,154.949,379.824,313.798H976.331v-81.337h75.17v-17.031
		h-75.17v-72.087h79.574V314.37h-99.541v204.809h253.474c2.225,5.932,4.357,11.908,6.372,17.939
		c-4.767-0.776-9.92-1.212-15.567-1.212c-21.193,0-36.648,4.087-46.359,12.253c-8.392,7.068-12.582,17.994-12.582,32.782V607.1
		c0,8.609,3.88,17.881,11.646,27.815c1.774,2.209,9.985,11.041,24.628,26.49c8.873,9.536,17.193,18.295,24.964,26.273
		c2.882,3.766,4.325,8.867,4.325,15.294v27.603c0,2.664-0.802,4.662-2.401,5.991c-1.599,1.33-3.999,1.992-7.196,1.992
		c-2.742,0-5.087-0.719-7.027-2.162c-1.945-1.439-2.912-3.384-2.912-5.827v-53.602h-46.027v52.982
		c0,10.818,3.642,19.868,10.927,27.153c9.711,9.934,25.053,14.901,46.027,14.901c18.031,0,31.72-2.846,41.21-8.445
		C1222.35,919.116,1137.066,1054.139,1014.211,1138.416z"/>
	<path fill="#EC651A" d="M517.865,732.919c0,2.215-0.688,3.927-2.064,5.144c-1.376,1.215-3.559,1.821-6.54,1.821
		c-2.981,0-5.221-0.606-6.711-1.821c-1.49-1.216-2.235-2.929-2.235-5.144V537.561h-50.663v192.719
		c0,13.468,5.846,23.955,17.549,31.457c10.814,6.845,24.836,10.266,42.054,10.266c17.219,0,31.4-3.643,42.55-10.928
		c11.145-7.285,16.722-17.659,16.722-31.126V537.561h-50.663V732.919z"/>
	<path fill="#EC651A" d="M664.735,644.518c-8.211-8.388-16.976-17.328-26.289-26.822c-6.658-7.109-9.985-14.44-9.985-22v-21.663
		c0-2.442,0.688-4.221,2.069-5.335c1.382-1.107,3.451-1.666,6.215-1.666c2.302,0,4.201,0.616,5.696,1.837
		c1.496,1.221,2.246,2.945,2.246,5.164v43.001h46.027v-40.068c0-12.137-3.865-21.74-11.589-28.808
		c-9.054-8.165-22.74-12.253-41.06-12.253c-21.193,0-36.648,4.087-46.359,12.253c-8.392,7.068-12.582,17.994-12.582,32.782V607.1
		c0,8.609,3.88,17.881,11.646,27.815c1.774,2.209,9.985,11.041,24.628,26.49c8.873,9.536,17.193,18.295,24.964,26.273
		c2.882,3.766,4.325,8.867,4.325,15.294v27.603c0,2.664-0.803,4.662-2.401,5.991c-1.599,1.33-3.999,1.992-7.196,1.992
		c-2.742,0-5.087-0.719-7.027-2.162c-1.945-1.439-2.912-3.384-2.912-5.827v-53.602h-46.027v52.982
		c0,10.818,3.642,19.868,10.927,27.153c9.711,9.934,25.053,14.901,46.027,14.901c22.072,0,37.75-4.191,47.021-12.583
		c7.947-7.286,11.921-18.543,11.921-33.776v-29.471c0-9.934-3.218-19.423-9.65-28.477
		C682.26,663.283,675.383,655.558,664.735,644.518z"/>
	<rect x="705.944" y="537.561" fill="#EC651A" width="50.663" height="231.793"/>
	<polygon fill="#EC651A" points="853.294,643.317 824.155,537.561 766.207,537.561 766.207,769.354 808.592,769.354 
		808.592,645.717 843.36,769.354 895.679,769.354 895.679,537.561 853.294,537.561 	"/>
	<polygon fill="#EC651A" points="957.598,658.094 1001.307,658.094 1001.307,629.616 957.598,629.616 957.598,567.032 
		1005.943,567.032 1005.943,537.561 906.935,537.561 906.935,769.354 1006.606,769.354 1006.606,739.883 957.598,739.883 	"/>
	<path fill="#EC651A" d="M1100.493,644.518c-8.211-8.388-16.976-17.328-26.289-26.822c-6.658-7.109-9.985-14.44-9.985-22v-21.663
		c0-2.442,0.688-4.221,2.069-5.335c1.382-1.107,3.451-1.666,6.214-1.666c2.302,0,4.201,0.616,5.696,1.837
		c1.496,1.221,2.246,2.945,2.246,5.164v43.001h46.027v-40.068c0-12.137-3.865-21.74-11.589-28.808
		c-9.054-8.165-22.74-12.253-41.06-12.253c-21.193,0-36.648,4.087-46.359,12.253c-8.392,7.068-12.582,17.994-12.582,32.782V607.1
		c0,8.609,3.88,17.881,11.647,27.815c1.774,2.209,9.985,11.041,24.628,26.49c8.873,9.536,17.193,18.295,24.964,26.273
		c2.882,3.766,4.325,8.867,4.325,15.294v27.603c0,2.664-0.803,4.662-2.401,5.991c-1.599,1.33-3.999,1.992-7.196,1.992
		c-2.742,0-5.087-0.719-7.027-2.162c-1.945-1.439-2.912-3.384-2.912-5.827v-53.602h-46.027v52.982
		c0,10.818,3.642,19.868,10.927,27.153c9.712,9.934,25.053,14.901,46.027,14.901c22.072,0,37.75-4.191,47.021-12.583
		c7.948-7.286,11.922-18.543,11.922-33.776v-29.471c0-9.934-3.219-19.423-9.65-28.477
		C1118.018,663.283,1111.141,655.558,1100.493,644.518z"/>
	<polygon fill="#EC651A" points="750.705,502.148 671.131,502.148 671.131,420.812 746.3,420.812 746.3,403.781 671.131,403.781 
		671.131,331.694 750.705,331.694 750.705,314.37 651.164,314.37 651.164,519.179 750.705,519.179 	"/>
	<path fill="#EC651A" d="M930.671,519.179l-12.039-60.929c-2.448-12.039-6.045-21.165-10.791-27.382
		c-4.749-6.214-12.063-10.593-21.948-13.139c14.388-4.699,24.981-11.672,31.785-20.922c6.803-9.249,10.204-20.186,10.204-32.813
		c0-16.738-5.409-29.191-16.223-37.365c-10.815-8.17-25.131-12.259-42.943-12.259h-49.33v204.809h19.526v-93.668h22.16
		c11.739,0,20.715,3.474,26.927,10.425c6.213,6.951,10.64,18.257,13.282,33.917l8.103,49.326H930.671z M859.318,408.92h-20.408
		v-76.639h30.685c12.723,0,22.266,2.815,28.629,8.442c6.362,5.63,9.544,14.121,9.544,25.474c0,13.116-4.455,23.516-13.361,31.198
		C885.5,405.08,873.802,408.92,859.318,408.92z"/>
</g>
</svg>
