<?xml version="1.0" encoding="utf-8"?>
<!-- Generator: Adobe Illustrator 17.0.0, SVG Export Plug-In . SVG Version: 6.00 Build 0)  -->
<!DOCTYPE svg PUBLIC "-//W3C//DTD SVG 1.1//EN" "http://www.w3.org/Graphics/SVG/1.1/DTD/svg11.dtd">
<svg version="1.1" id="圖層_1" xmlns="http://www.w3.org/2000/svg" xmlns:xlink="http://www.w3.org/1999/xlink" x="0px" y="0px"
	 width="1417.32px" height="1417.32px" viewBox="0 0 1417.32 1417.32" enable-background="new 0 0 1417.32 1417.32"
	 xml:space="preserve">
<path fill="#F29518" d="M-992.303,1411.3c-352.245,0-637.795,285.55-637.795,637.795s285.55,637.795,637.795,637.795
	s637.795-285.551,637.795-637.795S-640.058,1411.3-992.303,1411.3z M-999.94,2329.266h-123.004v-270.121h-34.561v270.121h-123.004
	v-562.763h123.004v223.503h34.561v-223.503h123.004V2329.266z M-704.096,1964.268H-815.84v-112.459
	c0-4.842-1.414-8.352-4.208-10.513c-2.811-2.161-7.296-3.233-13.47-3.233c-6.159,0-10.789,1.072-13.877,3.217
	c-3.087,2.161-4.615,5.655-4.615,10.497v392.215c0,4.322,1.82,7.685,5.46,10.091c3.64,2.421,7.994,3.64,13.032,3.64
	c6.174,0,10.659-1.219,13.47-3.64c2.795-2.421,4.208-5.785,4.208-10.107v-139.822h111.744v143.104
	c0,21.985-10.725,41.548-32.156,58.691c-24.65,19.84-56.546,29.752-95.674,29.752c-41.792,0-75.557-8.303-101.295-24.926
	c-27.867-18.215-41.792-43.677-41.792-76.37v-362.577c0-35.91,10.172-62.444,30.548-79.603
	c23.577-19.807,61.096-29.736,112.54-29.736c44.489,0,77.718,9.928,99.703,29.736c18.751,17.159,28.127,40.476,28.127,69.951
	V1964.268z"/>
<g>
	<path fill="#F29518" d="M-842.805,1842.45c-6.987-2.925-16.622-4.387-28.907-4.387v151.131c12.837,0,21.221-0.78,25.137-2.389
		c9.506-4.257,14.251-13.324,14.251-27.184v-91.985C-832.324,1853.791-835.818,1845.391-842.805,1842.45z"/>
	<path fill="#F29518" d="M-992.302,1411.3c-352.245,0-637.796,285.55-637.796,637.795c0,352.244,285.551,637.795,637.796,637.795
		c352.244,0,637.795-285.551,637.795-637.795C-354.507,1696.85-640.058,1411.3-992.302,1411.3z M-1022.859,1964.267h-111.743
		v-112.458c0-4.843-1.414-8.352-4.209-10.513c-2.811-2.161-7.296-3.234-13.47-3.234c-6.158,0-10.789,1.073-13.876,3.218
		c-3.087,2.161-4.615,5.655-4.615,10.497v392.215c0,4.322,1.82,7.685,5.459,10.091c3.64,2.421,7.995,3.64,13.032,3.64
		c6.175,0,10.66-1.219,13.47-3.64c2.795-2.421,4.209-5.785,4.209-10.107v-139.821h111.743v143.104
		c0,21.985-10.724,41.548-32.156,58.691c-24.65,19.84-56.546,29.751-95.673,29.751c-41.792,0-75.558-8.303-101.295-24.926
		c-27.867-18.215-41.792-43.677-41.792-76.37v-362.577c0-35.91,10.172-62.444,30.548-79.603
		c23.577-19.807,61.095-29.735,112.54-29.735c44.489,0,77.718,9.928,99.703,29.735c18.752,17.159,28.127,40.476,28.127,69.951
		V1964.267z M-813.833,2329.266c-6.971-8.043-11.797-19.954-14.477-35.78c-2.681-15.794-4.013-38.185-4.013-67.124v-138.278
		c0-13.925-3.494-22.375-10.481-25.332c-6.987-2.925-16.622-4.42-28.907-4.42v270.934h-123.003v-562.763h152.739
		c40.72,0,72.486,9.067,95.267,27.217c22.781,18.134,34.171,42.133,34.171,71.982v67.206c0,18.67-2.925,33.083-8.774,43.205
		c-10.66,18.67-33.018,33.603-67.092,44.798c31.409,8.06,52.972,20.669,64.687,37.844c7.442,11.277,11.179,26.843,11.179,46.699
		v121.558c1.073,19.873,2.128,34.903,3.217,45.107c3.737,31.652,9.912,50.712,18.491,57.147H-813.833z"/>
</g>
<g>
	<path fill="#F29518" d="M-503.545,2065.327c0-4.953-1.066-8.657-3.198-11.123c-2.121-2.466-5.319-3.704-9.583-3.704
		c-3.553,0-6.579,1.238-9.055,3.704c-2.487,2.466-3.736,6.17-3.736,11.123v68.813h25.572V2065.327z"/>
	<path fill="#F29518" d="M-1271.186,2050.5c-3.553,0-6.568,1.238-9.055,3.714c-2.487,2.487-3.725,6.202-3.725,11.166v184.4
		c0,4.964,1.066,8.765,3.198,11.424c2.132,2.66,5.329,3.984,9.582,3.984c4.264,0,7.462-1.324,9.594-3.984
		c2.132-2.659,3.198-6.46,3.198-11.424v-184.4c0-4.964-1.066-8.678-3.198-11.166
		C-1263.724,2051.739-1266.921,2050.5-1271.186,2050.5z"/>
	<path fill="#F29518" d="M-1070.71,1925.697c2.654,0,4.843-0.861,6.572-2.59c1.721-1.722,2.582-4.304,2.582-7.763v-58.104
		c-7.433,1.858-12.477,4.118-15.123,6.765c-2.654,2.655-3.982,6.106-3.982,10.345v40.994c0,3.459,0.861,6.041,2.59,7.763
		C-1076.35,1924.836-1073.896,1925.697-1070.71,1925.697z"/>
	<path fill="#F29518" d="M-992.303,1411.3c-352.245,0-637.795,285.551-637.795,637.795c0,352.245,285.55,637.796,637.795,637.796
		s637.795-285.551,637.795-637.796C-354.508,1696.85-640.058,1411.3-992.303,1411.3z M-1135.982,1879.925
		c0-18.043,12.405-33.038,37.213-44.976c24.809-11.938,37.213-20.296,37.213-25.074v-33.432c0-3.717-0.78-6.5-2.333-8.358
		c-1.561-1.85-3.902-2.784-7.015-2.784c-2.607,0-4.819,0.933-6.637,2.784c-1.81,1.858-2.719,4.641-2.719,8.358v44.573h-53.736
		v-44.968c0-16.716,6.773-28.92,20.304-36.618c10.876-6.105,26.128-9.154,45.772-9.154c19.628,0,34.358,3.322,44.179,9.95
		c11.672,7.698,17.513,20.296,17.513,37.808v179.501h-48.958v-8.752c-2.654,5.036-6.709,8.293-12.139,9.75
		c-5.446,1.456-13.201,2.188-23.288,2.188c-16.451,0-28.123-2.928-35.025-8.761c-6.902-5.832-10.345-14.721-10.345-26.667V1879.925z
		 M-1287.618,1678.93h60.895v110.649h17.111V1678.93h60.895v278.607h-60.895v-133.729h-17.111v133.729h-60.895V1678.93z
		 M-1375.595,2065.94h-74.046v-74.52c0-3.209-0.937-5.535-2.789-6.966c-1.863-1.432-4.834-2.143-8.926-2.143
		c-4.08,0-7.149,0.711-9.195,2.132c-2.045,1.432-3.058,3.747-3.058,6.956v259.9c0,2.864,1.206,5.093,3.618,6.687
		c2.412,1.604,5.297,2.412,8.635,2.412c4.092,0,7.063-0.808,8.926-2.412c1.852-1.604,2.789-3.833,2.789-6.697v-92.653h74.046v94.827
		c0,14.568-7.107,27.532-21.308,38.891c-16.334,13.147-37.47,19.715-63.398,19.715c-27.693,0-50.068-5.502-67.123-16.517
		c-18.466-12.07-27.693-28.942-27.693-50.606v-240.261c0-23.796,6.74-41.379,20.243-52.749
		c15.623-13.125,40.485-19.704,74.574-19.704c29.481,0,51.5,6.579,66.068,19.704c12.426,11.37,18.638,26.821,18.638,46.353V2065.94z
		 M-1184.348,2250.803c0,22.73-8.527,39.075-25.572,49.013c-13.847,8.162-33.917,12.253-60.2,12.253
		c-26.638,0-47.236-4.436-61.793-13.319c-17.411-10.659-26.1-27.521-26.1-50.606v-180.599c0-22.73,8.689-39.419,26.1-50.079
		c14.913-9.227,35.511-13.847,61.793-13.847c24.151,0,44.49,5.244,60.997,15.71c16.517,10.487,24.775,25.669,24.775,45.556V2250.803
		z M-997.363,2307.805h-74.057v-10.25c-3.909,3.951-9.852,7.354-17.842,10.218c-7.989,2.853-17.313,4.296-27.973,4.296
		c-15.634,0-28.501-4.092-38.622-12.253c-10.121-8.172-15.182-18.11-15.182-29.836v-264.228h74.046v245.074
		c0,9.227,4.264,13.825,12.791,13.825c4.264,0,7.462-1.141,9.583-3.446c2.132-2.304,3.198-5.577,3.198-9.841v-245.612h74.057
		V2307.805z M-993.099,1912.963v-134.927c0-16.981,6.5-29.45,19.499-37.414c11.15-6.894,26.531-10.345,46.174-10.345
		c19.106,0,33.963,3.049,44.574,9.154c12.999,7.425,19.507,19.636,19.507,36.618v55.715h-55.329v-55.321
		c0-3.717-0.796-6.5-2.389-8.358c-1.585-1.85-3.974-2.784-7.16-2.784c-2.654,0-4.915,0.925-6.765,2.775
		c-1.859,1.858-2.791,4.633-2.791,8.342v137.767c0,3.708,0.796,6.548,2.389,8.535c1.593,1.987,3.982,2.976,7.167,2.976
		s5.575-0.99,7.16-2.968c1.593-1.979,2.389-4.811,2.389-8.503v-54.203h55.329v54.927c0,16.981-6.371,29.193-19.106,36.617
		c-10.353,6.097-25.347,9.155-44.976,9.155c-19.901,0-35.29-3.314-46.174-9.951C-986.599,1942.808-993.099,1930.21-993.099,1912.963
		z M-806.654,2130.942h-74.057v-65.97c0-9.292-4.264-13.944-12.78-13.944c-4.264,0-7.462,1.077-9.594,3.209
		c-2.132,2.132-3.198,5.513-3.198,10.132v243.437h-74.046v-302.054h74.046v9.981c4.264-3.51,10.39-6.406,18.38-8.689
		c7.989-2.283,17.131-3.424,27.435-3.424c15.623,0,28.501,4.178,38.622,12.512c10.121,8.355,15.193,18.563,15.193,30.633V2130.942z
		 M-796.094,1957.537h-55.321V1678.93h55.321v125.37l28.662-72.431h56.914l-39.803,98.953l53.334,126.714h-64.878l-34.228-81.594
		V1957.537z M-618.065,2248.144c0,22.729-8.711,39.419-26.11,50.067c-14.912,9.249-35.521,13.858-61.794,13.858
		c-25.572,0-45.47-4.092-59.672-12.253c-17.4-9.938-26.1-26.283-26.1-49.013v-64.463h74.046v63.495
		c0,4.953,1.088,8.732,3.263,11.381c2.186,2.649,5.276,3.973,9.27,3.973c3.984,0,6.977-1.324,8.98-3.973
		c2.003-2.649,2.993-6.428,2.993-11.37v-23.279c0-20.458-4.974-33.69-14.912-39.688c-13.502-7.106-26.1-13.858-37.826-20.243
		c-17.4-9.593-29.125-18.197-35.155-25.841c-6.051-7.634-9.055-18.552-9.055-32.765v-40.485c0-22.73,8.334-39.419,25.034-50.079
		c14.557-9.227,34.972-13.847,61.266-13.847c25.572,0,45.276,4.081,59.134,12.253c16.689,9.938,25.034,26.283,25.034,49.013v59.661
		h-72.981v-59.134c0-4.608-1.195-8.259-3.575-10.918c-2.379-2.67-5.103-3.994-8.151-3.994c-3.413,0-6.299,1.249-8.679,3.725
		c-2.379,2.487-3.574,6.213-3.574,11.187v28.232c0,12.436,5.146,22.03,15.451,28.77l28.77,15.451
		c20.953,11.015,33.906,19.004,38.891,23.968c10.294,9.949,15.451,23.624,15.451,41.023V2248.144z M-525.919,2261.215
		c2.132,2.649,5.33,3.973,9.593,3.973c4.264,0,7.462-1.313,9.583-3.962c2.132-2.649,3.198-6.439,3.198-11.381v-60.307h74.057v61.265
		c0,22.375-8.883,38.719-26.638,49.013c-14.213,8.162-34.455,12.253-60.738,12.253s-46.525-4.436-60.727-13.319
		c-17.045-10.659-25.572-27.521-25.572-50.606v-180.599c0-22.73,8.345-39.419,25.045-50.079
		c14.557-9.227,34.972-13.847,61.255-13.847c25.928,0,46.17,4.081,60.738,12.253c17.755,9.938,26.638,26.283,26.638,49.013v115.069
		h-99.629v69.88C-529.117,2254.787-528.051,2258.567-525.919,2261.215z"/>
</g>
<g>
	<path fill="#F29518" d="M-1306.313,2212.802v49.988c0,4.218,1.049,7.367,3.158,9.466c2.099,2.109,5.091,3.159,8.976,3.159
		c3.237,0,5.905-1.05,8.014-3.159c2.099-2.099,3.149-5.248,3.149-9.466v-70.853c-9.064,2.266-15.214,5.022-18.441,8.25
		C-1304.695,2203.424-1306.313,2207.632-1306.313,2212.802z"/>
	<path fill="#F29518" d="M-992.303,1411.3c-352.245,0-637.795,285.55-637.795,637.795s285.55,637.795,637.795,637.795
		s637.795-285.551,637.795-637.795S-640.058,1411.3-992.303,1411.3z M-993.099,1802.463c0-16.982,6.5-29.45,19.5-37.414
		c11.149-6.894,26.53-10.345,46.174-10.345c19.106,0,33.963,3.049,44.574,9.155c12.999,7.425,19.507,19.636,19.507,36.618v55.715
		h-55.329v-55.321c0-3.717-0.796-6.5-2.389-8.358c-1.584-1.85-3.974-2.783-7.16-2.783c-2.654,0-4.915,0.925-6.765,2.775
		c-1.859,1.858-2.791,4.633-2.791,8.342v137.767c0,3.709,0.796,6.548,2.389,8.535c1.593,1.987,3.982,2.976,7.167,2.976
		c3.186,0,5.575-0.99,7.16-2.968c1.593-1.979,2.389-4.81,2.389-8.503v-54.203h55.329v54.926c0,16.982-6.371,29.193-19.106,36.618
		c-10.353,6.097-25.347,9.154-44.976,9.154c-19.901,0-35.29-3.314-46.174-9.95c-13-7.964-19.5-20.561-19.5-37.808V1802.463z
		 M-1135.982,1904.352c0-18.043,12.405-33.038,37.213-44.976c24.809-11.938,37.213-20.296,37.213-25.074v-33.432
		c0-3.717-0.78-6.5-2.333-8.358c-1.561-1.85-3.901-2.783-7.015-2.783c-2.607,0-4.819,0.933-6.637,2.783
		c-1.81,1.859-2.719,4.642-2.719,8.358v44.573h-53.736v-44.967c0-16.717,6.774-28.92,20.304-36.618
		c10.876-6.106,26.128-9.155,45.772-9.155c19.628,0,34.357,3.323,44.179,9.951c11.672,7.698,17.512,20.296,17.512,37.808v179.501
		h-48.958v-8.752c-2.655,5.036-6.709,8.294-12.139,9.75c-5.446,1.456-13.2,2.188-23.288,2.188c-16.45,0-28.123-2.928-35.025-8.76
		c-6.902-5.832-10.345-14.721-10.345-26.667V1904.352z M-1390.271,2093.893h-67.459v-67.89c0-2.923-0.854-5.042-2.541-6.347
		c-1.697-1.305-4.404-1.952-8.132-1.952c-3.718,0-6.513,0.647-8.377,1.942c-1.864,1.305-2.786,3.414-2.786,6.337v236.777
		c0,2.61,1.099,4.64,3.296,6.092c2.197,1.462,4.826,2.198,7.867,2.198c3.728,0,6.435-0.736,8.132-2.198
		c1.687-1.461,2.541-3.492,2.541-6.101v-84.41h67.459v86.391c0,13.272-6.474,25.083-19.413,35.431
		c-14.88,11.977-34.136,17.961-57.757,17.961c-25.229,0-45.613-5.012-61.151-15.047c-16.823-10.996-25.229-26.367-25.229-46.104
		v-218.885c0-21.679,6.141-37.697,18.442-48.056c14.234-11.957,36.883-17.951,67.939-17.951c26.858,0,46.918,5.994,60.19,17.951
		c11.32,10.359,16.98,24.435,16.98,42.229V2093.893z M-1215.548,2314.24h-59.7v-10.673c-3.237,6.141-8.181,10.114-14.802,11.889
		c-6.641,1.775-16.097,2.668-28.398,2.668c-20.06,0-34.293-3.571-42.71-10.682c-8.416-7.111-12.615-17.951-12.615-32.518v-55.324
		c0-22.002,15.126-40.287,45.378-54.844c30.252-14.557,45.378-24.749,45.378-30.576v-40.768c0-4.532-0.951-7.926-2.844-10.192
		c-1.903-2.256-4.757-3.394-8.554-3.394c-3.178,0-5.876,1.138-8.092,3.394c-2.208,2.266-3.316,5.66-3.316,10.192v54.354h-65.526
		v-54.834c0-20.384,8.26-35.265,24.759-44.652c13.263-7.446,31.861-11.163,55.815-11.163c23.935,0,41.896,4.051,53.873,12.134
		c14.233,9.388,21.355,24.749,21.355,46.104V2314.24z M-1226.722,1848.235v133.729h-60.896v-278.607h60.896v110.65h17.11v-110.65
		h60.895v278.607h-60.895v-133.729H-1226.722z M-950.559,2314.24h-67.468v-220.317c0-8.426-3.875-12.644-11.644-12.644
		c-3.884,0-6.798,0.981-8.74,2.923c-1.933,1.942-2.904,5.022-2.904,9.23v220.808h-67.468v-220.808
		c0-8.426-3.885-12.635-11.644-12.635c-3.884,0-6.798,0.971-8.74,2.913c-1.943,1.952-2.913,5.032-2.913,9.24v221.288h-67.459
		v-275.181h67.459v9.574c3.884-3.198,9.623-5.915,17.235-8.161c7.593-2.237,15.774-3.355,24.504-3.355
		c12.625,0,21.522,1.599,26.701,4.797c6.141,5.444,11.477,10.084,16.008,13.919c2.913-3.511,9.299-7.514,19.177-11.997
		c9.859-4.473,19.658-6.719,29.359-6.719c13.909,0,25.485,3.963,34.706,11.889c9.221,7.936,13.831,17.225,13.831,27.907V2314.24z
		 M-776.326,2279.779c0,10.682-4.542,19.736-13.595,27.182c-9.064,7.435-20.865,11.163-35.431,11.163
		c-9.054,0-17.314-0.971-24.749-2.913c-7.445-1.942-13.105-4.365-16.99-7.279v64.546h-67.458v-333.419h50.959l5.826,11.163
		c4.522-3.561,8.564-6.15,12.134-7.769c7.112-3.561,16.176-5.336,27.182-5.336c19.412,0,34.941,5.013,46.584,15.037
		c10.359,8.74,15.538,18.775,15.538,30.095V2279.779z M-796.094,1900.37v81.593h-55.321v-278.607h55.321v125.371l28.662-72.431
		h56.914l-39.803,98.953l53.334,126.714h-64.878L-796.094,1900.37z M-603.555,2314.24h-67.468v-9.339
		c-3.561,3.6-8.976,6.7-16.254,9.309c-7.279,2.599-15.774,3.914-25.485,3.914c-14.243,0-25.965-3.727-35.186-11.163
		c-9.221-7.446-13.831-16.5-13.831-27.182v-240.721h67.458v223.27c0,8.406,3.884,12.595,11.653,12.595
		c3.885,0,6.798-1.04,8.73-3.139c1.942-2.099,2.913-5.082,2.913-8.966v-223.76h67.468V2314.24z M-454.571,2305.499
		c-13.586,8.426-32.361,12.625-56.296,12.625c-23.297,0-41.424-3.727-54.363-11.163c-15.852-9.054-23.778-23.945-23.778-44.652
		v-58.729h67.459v57.846c0,4.512,0.991,7.956,2.972,10.368c1.991,2.413,4.807,3.62,8.446,3.62c3.629,0,6.356-1.207,8.181-3.62
		c1.825-2.413,2.727-5.856,2.727-10.358v-21.208c0-18.637-4.532-30.693-13.586-36.157c-12.301-6.474-23.777-12.625-34.46-18.441
		c-15.852-8.74-26.534-16.578-32.028-23.543c-5.513-6.955-8.249-16.901-8.249-29.849v-36.883c0-20.707,7.593-35.912,22.807-45.623
		c13.262-8.406,31.861-12.615,55.815-12.615c23.297,0,41.248,3.718,53.872,11.163c15.205,9.054,22.807,23.945,22.807,44.652v54.354
		h-66.487v-53.873c0-4.198-1.089-7.524-3.257-9.947c-2.167-2.433-4.649-3.639-7.425-3.639c-3.11,0-5.739,1.138-7.906,3.394
		c-2.168,2.266-3.257,5.66-3.257,10.192v25.72c0,11.33,4.689,20.07,14.077,26.21l26.21,14.077
		c19.089,10.035,30.89,17.313,35.431,21.835c9.378,9.064,14.077,21.522,14.077,37.374v41.258
		C-430.783,2280.594-438.719,2295.798-454.571,2305.499z"/>
	<path fill="#F29518" d="M-855.439,2079.826c-3.884,0-6.798,1.05-8.74,3.149c-1.942,2.109-2.913,5.267-2.913,9.466v170.839
		c0,3.884,1.05,6.876,3.158,8.975c2.099,2.109,4.925,3.159,8.495,3.159c7.759,0,11.644-4.198,11.644-12.625v-170.349
		C-843.795,2084.034-847.679,2079.826-855.439,2079.826z"/>
	<path fill="#F29518" d="M-1070.71,1950.124c2.654,0,4.843-0.861,6.572-2.59c1.721-1.722,2.582-4.303,2.582-7.762v-58.104
		c-7.433,1.859-12.477,4.119-15.123,6.766c-2.654,2.654-3.982,6.106-3.982,10.345v40.994c0,3.459,0.861,6.041,2.591,7.762
		C-1076.349,1949.263-1073.896,1950.124-1070.71,1950.124z"/>
</g>
<g>
	<path fill="#F29518" d="M-1132.548,2060.448c-5.984-2.874-14.7-4.326-26.148-4.326v196.883c11.984,0,19.611-0.79,22.879-2.369
		c8.179-4.168,12.269-13.058,12.269-26.653v-138.839C-1123.547,2071.563-1126.547,2063.321-1132.548,2060.448z"/>
	<path fill="#F29518" d="M-838.952,1848.328c-4.358-2.084-12.253-3.126-23.669-3.126v407.803c12.521,0,20.4-0.79,23.669-2.369
		c8.179-4.168,12.253-13.058,12.253-26.653v-349.775C-826.7,1861.149-830.773,1852.512-838.952,1848.328z"/>
	<path fill="#F29518" d="M-1132.548,1849.496c-5.984-2.858-14.7-4.295-26.148-4.295v150.777c11.984,0,19.611-0.789,22.879-2.353
		c8.179-4.152,12.269-13.011,12.269-26.558v-92.97C-1123.547,1860.565-1126.547,1852.354-1132.548,1849.496z"/>
	<path fill="#F29518" d="M-992.303,1429.319c-342.292,0-619.775,277.483-619.775,619.775c0,342.293,277.483,619.776,619.775,619.776
		c342.293,0,619.776-277.483,619.776-619.776C-372.527,1706.802-650.01,1429.319-992.303,1429.319z M-1007.145,2214.587
		c0,30.774-9.648,55.802-28.911,75.096c-21.348,21.901-51.553,32.843-90.618,32.843h-151.55v-546.864h141.397
		c39.569,0,70.438,8.858,92.575,26.527c22.121,17.685,33.206,41.085,33.206,70.218v75.664c0,16.658-3.379,30.427-10.09,41.354
		c-10.863,16.658-30.774,29.906-59.733,39.79c30.522,7.816,51.491,19.816,62.859,35.985c7.232,10.421,10.863,24.758,10.863,43.011
		V2214.587z M-706.381,2214.572c0,30.175-10.421,55.154-31.248,74.923c-22.927,22.026-53.906,33.032-92.97,33.032h-151.55v-546.864
		h150.777c39.048,0,70.043,10.753,92.954,32.259c21.348,19.769,32.037,45.017,32.037,75.696V2214.572z"/>
</g>
<g>
	<path fill="#F29518" d="M-1207.675,1848.328c-4.358-2.084-12.253-3.126-23.669-3.126v407.803c12.521,0,20.4-0.79,23.669-2.369
		c8.179-4.168,12.253-13.058,12.253-26.653v-349.775C-1195.423,1861.149-1199.496,1852.512-1207.675,1848.328z"/>
	<path fill="#F29518" d="M-992.303,1429.319c-342.293,0-619.775,277.483-619.775,619.775c0,342.293,277.483,619.776,619.775,619.776
		s619.775-277.483,619.775-619.776C-372.527,1706.802-650.01,1429.319-992.303,1429.319z M-1075.104,2214.572
		c0,30.175-10.421,55.154-31.248,74.922c-22.927,22.027-53.906,33.032-92.97,33.032h-151.55v-546.864h150.777
		c39.048,0,70.043,10.753,92.954,32.259c21.348,19.769,32.037,45.017,32.037,75.696V2214.572z M-633.733,2322.526h-107.813V2015.51
		l-62.243,307.016h-82.518l-71.638-307.016v307.016h-94.518v-546.864h155.451l54.301,283.585l48.822-283.585h160.156V2322.526z"/>
</g>
<g>
	<path fill="#F29518" d="M-848.718,1848.328c-4.358-2.084-12.253-3.126-23.669-3.126v407.803c12.522,0,20.401-0.79,23.669-2.369
		c8.179-4.168,12.253-13.058,12.253-26.653v-349.775C-836.465,1861.149-840.539,1852.512-848.718,1848.328z"/>
	<path fill="#F29518" d="M-992.302,1429.319c-342.293,0-619.776,277.483-619.776,619.775c0,342.293,277.483,619.776,619.776,619.776
		c342.292,0,619.775-277.483,619.775-619.776C-372.527,1706.802-650.01,1429.319-992.302,1429.319z M-1014.559,1845.975h-67.186
		v476.551h-119.528v-476.551h-67.186v-70.312h253.899V1845.975z M-716.147,2214.572c0,30.175-10.422,55.154-31.248,74.923
		c-22.927,22.026-53.907,33.032-92.97,33.032h-151.551v-546.864h150.777c39.048,0,70.044,10.753,92.955,32.259
		c21.348,19.769,32.037,45.017,32.037,75.696V2214.572z"/>
</g>
<g>
	<path fill="#F29518" d="M845.735,497.426c-4.358-2.084-12.253-3.126-23.669-3.126v407.803c12.521,0,20.4-0.789,23.669-2.369
		c8.179-4.169,12.253-13.058,12.253-26.653V523.306C857.988,510.247,853.914,501.611,845.735,497.426z"/>
	<path fill="#F29518" d="M695.898,79.594c-342.293,0-619.776,277.483-619.776,619.775c0,342.293,277.483,619.776,619.776,619.776
		c342.292,0,619.775-277.483,619.775-619.776C1315.674,357.077,1038.19,79.594,695.898,79.594z M676.753,616.939H568.167V507.658
		c0-4.705-1.374-8.116-4.09-10.216c-2.731-2.1-7.089-3.142-13.09-3.142c-5.984,0-10.484,1.042-13.484,3.126
		c-3,2.1-4.484,5.495-4.484,10.201V888.76c0,4.2,1.768,7.469,5.305,9.806c3.537,2.353,7.769,3.537,12.663,3.537
		c6,0,10.358-1.184,13.09-3.537c2.716-2.352,4.09-5.621,4.09-9.821V752.874h108.586v139.061c0,21.363-10.421,40.375-31.248,57.032
		c-23.953,19.28-54.948,28.911-92.97,28.911c-40.612,0-73.423-8.069-98.434-24.222c-27.079-17.7-40.611-42.443-40.611-74.212
		V527.111c0-34.895,9.884-60.68,29.685-77.354c22.911-19.247,59.37-28.895,109.361-28.895c43.232,0,75.523,9.648,96.886,28.895
		c18.222,16.674,27.332,39.332,27.332,67.975V616.939z M978.306,863.67c0,30.174-10.421,55.154-31.248,74.923
		c-22.927,22.027-53.906,33.032-92.97,33.032h-151.55V424.762h150.777c39.048,0,70.043,10.752,92.954,32.258
		c21.348,19.769,32.037,45.017,32.037,75.696V863.67z"/>
</g>
</svg>
