<?xml version="1.0" encoding="utf-8"?>
<!-- Generator: Adobe Illustrator 17.0.0, SVG Export Plug-In . SVG Version: 6.00 Build 0)  -->
<!DOCTYPE svg PUBLIC "-//W3C//DTD SVG 1.1//EN" "http://www.w3.org/Graphics/SVG/1.1/DTD/svg11.dtd">
<svg version="1.1" id="圖層_1" xmlns="http://www.w3.org/2000/svg" xmlns:xlink="http://www.w3.org/1999/xlink" x="0px" y="0px"
	 width="200px" height="200px" viewBox="0 0 200 200" enable-background="new 0 0 200 200" xml:space="preserve">
<g>
	<path fill="#F29518" d="M39.238,92.717c-0.353,0-0.653,0.123-0.9,0.37s-0.371,0.617-0.371,1.109v18.335
		c0,0.492,0.106,0.871,0.318,1.136c0.212,0.265,0.53,0.396,0.953,0.396c0.424,0,0.741-0.132,0.954-0.396
		c0.212-0.265,0.317-0.644,0.317-1.136V94.196c0-0.492-0.106-0.862-0.317-1.109C39.979,92.84,39.662,92.717,39.238,92.717z"/>
	<path fill="#F29518" d="M99.567,6.702c-50.957,0-92.266,41.309-92.266,92.266c0,50.957,41.309,92.266,92.266,92.266
		s92.266-41.309,92.266-92.266C191.832,48.011,150.524,6.702,99.567,6.702z M28.856,94.253h-7.362v-7.41
		c0-0.32-0.093-0.551-0.277-0.693c-0.186-0.142-0.481-0.213-0.887-0.213s-0.711,0.071-0.915,0.213
		c-0.204,0.142-0.305,0.372-0.305,0.692v25.841c0,0.284,0.12,0.505,0.36,0.665c0.24,0.16,0.526,0.238,0.86,0.238
		c0.406,0,0.701-0.078,0.887-0.238c0.184-0.16,0.277-0.382,0.277-0.667v-9.211h7.362v9.428c0,1.449-0.707,2.738-2.118,3.867
		c-1.625,1.307-3.726,1.959-6.303,1.959c-2.754,0-4.979-0.546-6.674-1.641c-1.837-1.2-2.754-2.878-2.754-5.033V88.162
		c0-2.366,0.67-4.114,2.013-5.245c1.553-1.307,4.025-1.959,7.415-1.959c2.931,0,5.119,0.652,6.568,1.959
		c1.236,1.131,1.853,2.667,1.853,4.608V94.253z M47.872,112.633c0,2.26-0.848,3.885-2.542,4.873
		c-1.378,0.812-3.373,1.218-5.986,1.218c-2.648,0-4.696-0.441-6.144-1.323c-1.73-1.06-2.595-2.738-2.595-5.033V94.412
		c0-2.26,0.865-3.92,2.595-4.978c1.484-0.919,3.531-1.378,6.144-1.378c2.401,0,4.423,0.521,6.065,1.563
		c1.642,1.042,2.463,2.551,2.463,4.528V112.633z M76.368,118.301h-7.363V94.255c0-0.919-0.423-1.38-1.271-1.38
		c-0.423,0-0.741,0.107-0.953,0.318c-0.212,0.213-0.318,0.549-0.318,1.008v24.099h-7.362V94.202c0-0.919-0.424-1.38-1.271-1.38
		c-0.424,0-0.742,0.107-0.954,0.32c-0.212,0.212-0.317,0.548-0.317,1.008v24.151h-7.363V88.267h7.363v1.045
		c0.423-0.348,1.05-0.645,1.88-0.891c0.829-0.244,1.721-0.366,2.675-0.366c1.377,0,2.348,0.174,2.913,0.524
		c0.67,0.594,1.253,1.101,1.749,1.518c0.317-0.384,1.014-0.82,2.092-1.309s2.146-0.734,3.205-0.734c1.518,0,2.781,0.432,3.788,1.298
		c1.006,0.866,1.509,1.881,1.509,3.045V118.301z M105.289,118.301h-7.363V94.255c0-0.919-0.423-1.38-1.271-1.38
		c-0.423,0-0.741,0.107-0.953,0.318c-0.212,0.213-0.318,0.549-0.318,1.008v24.099h-7.362V94.202c0-0.919-0.424-1.38-1.271-1.38
		c-0.424,0-0.742,0.107-0.954,0.32c-0.212,0.212-0.317,0.548-0.317,1.008v24.151h-7.363V88.267h7.363v1.045
		c0.423-0.348,1.05-0.645,1.88-0.891c0.829-0.244,1.721-0.366,2.675-0.366c1.377,0,2.348,0.174,2.913,0.524
		c0.67,0.594,1.253,1.101,1.749,1.518c0.317-0.384,1.014-0.82,2.092-1.309c1.077-0.489,2.146-0.734,3.205-0.734
		c1.518,0,2.781,0.432,3.788,1.298c1.006,0.866,1.509,1.881,1.509,3.045V118.301z M124.303,118.301h-7.362v-1.019
		c-0.389,0.393-0.98,0.731-1.774,1.015c-0.795,0.284-1.722,0.427-2.781,0.427c-1.554,0-2.834-0.405-3.84-1.218
		s-1.509-1.801-1.509-2.965V88.267h7.363v24.369c0,0.916,0.423,1.374,1.271,1.374c0.423,0,0.741-0.116,0.953-0.343
		c0.212-0.229,0.318-0.555,0.318-0.98V88.267h7.362V118.301z M143.213,118.301h-7.363V94.15c0-0.921-0.423-1.38-1.271-1.38
		c-0.423,0-0.741,0.11-0.953,0.331c-0.212,0.22-0.318,0.569-0.318,1.045v24.154h-7.362V88.267h7.362v1.006
		c0.424-0.352,1.033-0.644,1.828-0.873c0.795-0.229,1.703-0.345,2.728-0.345c1.553,0,2.833,0.416,3.84,1.245
		c1.006,0.83,1.509,1.845,1.509,3.045V118.301z M152.164,118.301h-7.362V88.267h7.362V118.301z M152.164,86.626h-7.362v-5.351h7.362
		V86.626z M168.054,118.301h-4.662c-3.178,0-5.129-0.432-5.853-1.296c-0.724-0.862-1.086-2.845-1.086-5.945V92.771h-3.284v-4.503
		h3.284V82.23h7.363v6.038h3.973v4.503h-3.973v18.273c0,0.884,0.3,1.502,0.9,1.854c0.423,0.247,1.076,0.372,1.96,0.372h1.377
		V118.301z M182.283,122.041c-0.39,0.855-1.204,1.584-2.444,2.189c-0.39,0.178-0.815,0.293-1.276,0.348
		c-0.461,0.052-1.134,0.078-2.02,0.078h-4.995v-4.078h2.553c0.637,0,1.09-0.176,1.357-0.528c0.265-0.354,0.398-0.828,0.398-1.428
		c0-0.354-0.052-0.688-0.158-1.006l-6.851-29.349h7.363l3.099,15.866l2.41-15.866h7.256l-5.736,29.826
		C182.815,120.228,182.495,121.544,182.283,122.041z"/>
</g>
</svg>
