<?xml version="1.0" encoding="utf-8"?>
<!-- Generator: Adobe Illustrator 17.0.0, SVG Export Plug-In . SVG Version: 6.00 Build 0)  -->
<!DOCTYPE svg PUBLIC "-//W3C//DTD SVG 1.1//EN" "http://www.w3.org/Graphics/SVG/1.1/DTD/svg11.dtd">
<svg version="1.1" id="圖層_1" xmlns="http://www.w3.org/2000/svg" xmlns:xlink="http://www.w3.org/1999/xlink" x="0px" y="0px"
	 width="1417.32px" height="1417.32px" viewBox="0 0 1417.32 1417.32" enable-background="new 0 0 1417.32 1417.32"
	 xml:space="preserve">
<path fill="#F29518" d="M-992.303,1411.3c-352.245,0-637.795,285.55-637.795,637.795s285.55,637.795,637.795,637.795
	s637.795-285.551,637.795-637.795S-640.058,1411.3-992.303,1411.3z M-999.94,2329.266h-123.004v-270.121h-34.561v270.121h-123.004
	v-562.763h123.004v223.503h34.561v-223.503h123.004V2329.266z M-704.096,1964.268H-815.84v-112.459
	c0-4.842-1.414-8.352-4.208-10.513c-2.811-2.161-7.296-3.233-13.47-3.233c-6.159,0-10.789,1.072-13.877,3.217
	c-3.087,2.161-4.615,5.655-4.615,10.497v392.215c0,4.322,1.82,7.685,5.46,10.091c3.64,2.421,7.994,3.64,13.032,3.64
	c6.174,0,10.659-1.219,13.47-3.64c2.795-2.421,4.208-5.785,4.208-10.107v-139.822h111.744v143.104
	c0,21.985-10.725,41.548-32.156,58.691c-24.65,19.84-56.546,29.752-95.674,29.752c-41.792,0-75.557-8.303-101.295-24.926
	c-27.867-18.215-41.792-43.677-41.792-76.37v-362.577c0-35.91,10.172-62.444,30.548-79.603
	c23.577-19.807,61.096-29.736,112.54-29.736c44.489,0,77.718,9.928,99.703,29.736c18.751,17.159,28.127,40.476,28.127,69.951
	V1964.268z"/>
<g>
	<path fill="#F29518" d="M862.111,496.903c-6.987-2.925-16.622-4.387-28.907-4.387v151.131c12.837,0,21.221-0.78,25.137-2.389
		c9.506-4.257,14.251-13.324,14.251-27.184v-91.985C872.591,508.245,869.098,499.844,862.111,496.903z"/>
	<path fill="#F29518" d="M712.613,65.754c-352.245,0-637.796,285.55-637.796,637.795c0,352.244,285.551,637.795,637.796,637.795
		c352.244,0,637.795-285.551,637.795-637.795C1350.408,351.304,1064.857,65.754,712.613,65.754z M682.057,618.721H570.314V506.263
		c0-4.843-1.414-8.352-4.209-10.513c-2.811-2.161-7.296-3.234-13.47-3.234c-6.158,0-10.789,1.073-13.876,3.218
		c-3.087,2.161-4.615,5.655-4.615,10.497v392.215c0,4.322,1.82,7.685,5.459,10.091c3.64,2.421,7.995,3.64,13.032,3.64
		c6.175,0,10.66-1.219,13.47-3.64c2.795-2.421,4.209-5.785,4.209-10.107V758.608h111.743v143.104
		c0,21.985-10.724,41.548-32.156,58.691c-24.65,19.84-56.546,29.751-95.673,29.751c-41.792,0-75.558-8.303-101.295-24.926
		c-27.867-18.215-41.792-43.677-41.792-76.37V526.281c0-35.91,10.172-62.444,30.548-79.603
		c23.577-19.807,61.095-29.735,112.54-29.735c44.489,0,77.718,9.928,99.703,29.735c18.752,17.159,28.127,40.476,28.127,69.951
		V618.721z M891.082,983.72c-6.971-8.043-11.797-19.954-14.477-35.78c-2.681-15.794-4.013-38.185-4.013-67.124V742.538
		c0-13.925-3.494-22.375-10.481-25.332c-6.987-2.925-16.622-4.42-28.907-4.42V983.72H710.2V420.956H862.94
		c40.72,0,72.486,9.067,95.267,27.217c22.781,18.134,34.171,42.133,34.171,71.982v67.206c0,18.67-2.925,33.083-8.774,43.205
		c-10.66,18.67-33.018,33.603-67.092,44.798c31.409,8.06,52.972,20.669,64.687,37.844c7.442,11.277,11.179,26.843,11.179,46.699
		v121.558c1.073,19.872,2.128,34.903,3.217,45.107c3.737,31.652,9.912,50.712,18.491,57.147H891.082z"/>
</g>
</svg>
