<?xml version="1.0" encoding="utf-8"?>
<!-- Generator: Adobe Illustrator 17.0.0, SVG Export Plug-In . SVG Version: 6.00 Build 0)  -->
<!DOCTYPE svg PUBLIC "-//W3C//DTD SVG 1.1//EN" "http://www.w3.org/Graphics/SVG/1.1/DTD/svg11.dtd">
<svg version="1.1" id="圖層_1" xmlns="http://www.w3.org/2000/svg" xmlns:xlink="http://www.w3.org/1999/xlink" x="0px" y="0px"
	 width="1417.32px" height="1417.32px" viewBox="0 0 1417.32 1417.32" enable-background="new 0 0 1417.32 1417.32"
	 xml:space="preserve">
<path fill="#F29518" d="M-992.303,1682.594c-202.67,0-366.966,164.296-366.966,366.966s164.296,366.966,366.966,366.966
	s366.966-164.296,366.966-366.966S-789.633,1682.594-992.303,1682.594z M-996.697,2210.76h-70.772v-155.419h-19.885v155.419h-70.772
	v-323.795h70.772v128.596h19.885v-128.596h70.772V2210.76z M-826.479,2000.753h-64.294v-64.705c0-2.786-0.813-4.806-2.421-6.049
	c-1.617-1.244-4.198-1.86-7.75-1.86c-3.543,0-6.208,0.617-7.984,1.851c-1.776,1.243-2.655,3.253-2.655,6.039v225.667
	c0,2.487,1.047,4.422,3.141,5.806c2.094,1.393,4.6,2.094,7.498,2.094c3.552,0,6.133-0.701,7.75-2.094
	c1.608-1.393,2.421-3.329,2.421-5.815v-80.449h64.294v82.337c0,12.649-6.171,23.906-18.502,33.769
	c-14.183,11.415-32.535,17.118-55.047,17.118c-24.046,0-43.473-4.777-58.282-14.342c-16.034-10.48-24.046-25.13-24.046-43.941
	v-208.615c0-20.661,5.853-35.928,17.576-45.801c13.565-11.397,35.152-17.109,64.751-17.109c25.598,0,44.716,5.712,57.366,17.109
	c10.789,9.873,16.183,23.288,16.183,40.248V2000.753z"/>
<g>
	<path fill="#F29518" d="M-906.287,1930.662c-4.02-1.683-9.564-2.524-16.632-2.524v86.956c7.386,0,12.21-0.449,14.463-1.374
		c5.469-2.449,8.199-7.666,8.199-15.641v-52.925C-900.257,1937.188-902.267,1932.355-906.287,1930.662z"/>
	<path fill="#F29518" d="M-992.303,1682.594c-202.67,0-366.966,164.296-366.966,366.966s164.296,366.966,366.966,366.966
		c202.669,0,366.966-164.296,366.966-366.966S-789.633,1682.594-992.303,1682.594z M-1009.884,2000.752h-64.293v-64.704
		c0-2.786-0.813-4.806-2.422-6.049c-1.617-1.244-4.198-1.861-7.75-1.861c-3.543,0-6.208,0.617-7.984,1.851
		c-1.776,1.243-2.655,3.253-2.655,6.039v225.667c0,2.487,1.047,4.422,3.141,5.806c2.094,1.393,4.6,2.094,7.498,2.094
		c3.553,0,6.133-0.701,7.75-2.094c1.608-1.393,2.422-3.329,2.422-5.815v-80.448h64.293v82.337c0,12.649-6.17,23.906-18.502,33.769
		c-14.183,11.415-32.535,17.118-55.047,17.118c-24.046,0-43.473-4.777-58.282-14.342c-16.034-10.48-24.046-25.13-24.046-43.94
		v-208.615c0-20.661,5.852-35.928,17.576-45.801c13.565-11.396,35.152-17.109,64.751-17.109c25.598,0,44.717,5.712,57.366,17.109
		c10.789,9.873,16.183,23.289,16.183,40.248V2000.752z M-889.617,2210.76c-4.011-4.628-6.787-11.481-8.33-20.587
		c-1.543-9.087-2.309-21.97-2.309-38.621v-79.561c0-8.012-2.01-12.874-6.03-14.575c-4.02-1.683-9.564-2.543-16.632-2.543v155.886
		h-70.772v-323.795h87.881c23.429,0,41.706,5.217,54.813,15.66c13.107,10.433,19.661,24.242,19.661,41.416v38.668
		c0,10.742-1.683,19.035-5.048,24.859c-6.133,10.742-18.997,19.334-38.602,25.775c18.072,4.637,30.478,11.892,37.219,21.774
		c4.282,6.489,6.432,15.445,6.432,26.869v69.94c0.617,11.434,1.225,20.082,1.851,25.953c2.15,18.212,5.703,29.178,10.639,32.881
		H-889.617z"/>
</g>
<g>
	<path fill="#F29518" d="M-711.088,2058.898c0-2.85-0.613-4.981-1.84-6.4c-1.22-1.418-3.06-2.131-5.514-2.131
		c-2.044,0-3.785,0.712-5.21,2.131c-1.431,1.419-2.15,3.55-2.15,6.4v39.593h14.713V2058.898z"/>
	<path fill="#F29518" d="M-1152.763,2050.368c-2.044,0-3.779,0.712-5.21,2.137c-1.431,1.431-2.143,3.568-2.143,6.424v106.097
		c0,2.856,0.613,5.043,1.84,6.573c1.226,1.53,3.066,2.292,5.513,2.292c2.454,0,4.293-0.762,5.52-2.292
		c1.227-1.53,1.84-3.717,1.84-6.573v-106.097c0-2.856-0.613-4.993-1.84-6.424
		C-1148.469,2051.08-1150.309,2050.368-1152.763,2050.368z"/>
	<path fill="#F29518" d="M-1037.416,1978.56c1.527,0,2.786-0.495,3.781-1.49c0.99-0.991,1.486-2.476,1.486-4.467v-33.431
		c-4.276,1.069-7.179,2.37-8.701,3.892c-1.527,1.527-2.291,3.513-2.291,5.952v23.586c0,1.99,0.495,3.476,1.49,4.467
		C-1040.661,1978.065-1039.249,1978.56-1037.416,1978.56z"/>
	<path fill="#F29518" d="M-992.303,1682.593c-202.67,0-366.966,164.296-366.966,366.966s164.296,366.966,366.966,366.966
		s366.966-164.296,366.966-366.966S-789.633,1682.593-992.303,1682.593z M-1074.971,1952.224c0-10.382,7.137-19.009,21.411-25.878
		c14.274-6.869,21.411-11.677,21.411-14.427v-19.236c0-2.138-0.449-3.74-1.342-4.809c-0.898-1.065-2.245-1.602-4.036-1.602
		c-1.5,0-2.773,0.537-3.819,1.602c-1.041,1.069-1.564,2.67-1.564,4.809v25.646h-30.918v-25.873c0-9.618,3.897-16.639,11.682-21.069
		c6.258-3.513,15.033-5.267,26.336-5.267c11.294,0,19.768,1.911,25.419,5.725c6.716,4.429,10.076,11.678,10.076,21.754v103.279
		h-28.169v-5.036c-1.527,2.897-3.86,4.772-6.984,5.61c-3.133,0.838-7.595,1.259-13.399,1.259c-9.465,0-16.181-1.685-20.152-5.041
		c-3.971-3.356-5.952-8.47-5.952-15.343V1952.224z M-1162.217,1836.579h35.037v63.664h9.845v-63.664h35.037v160.301h-35.037v-76.943
		h-9.845v76.943h-35.037V1836.579z M-1212.836,2059.251h-42.604v-42.876c0-1.846-0.539-3.184-1.605-4.008
		c-1.072-0.824-2.781-1.233-5.136-1.233c-2.348,0-4.113,0.409-5.291,1.227c-1.177,0.824-1.759,2.156-1.759,4.002V2165.9
		c0,1.648,0.694,2.93,2.082,3.847c1.388,0.923,3.048,1.388,4.968,1.388c2.354,0,4.064-0.465,5.136-1.388
		c1.066-0.923,1.605-2.205,1.605-3.853v-53.309h42.604v54.56c0,8.382-4.089,15.841-12.26,22.377
		c-9.398,7.564-21.559,11.343-36.477,11.343c-15.934,0-28.807-3.166-38.62-9.503c-10.625-6.945-15.934-16.652-15.934-29.117
		v-138.238c0-13.691,3.878-23.808,11.647-30.35c8.989-7.552,23.293-11.337,42.907-11.337c16.962,0,29.631,3.785,38.013,11.337
		c7.149,6.542,10.724,15.432,10.724,26.67V2059.251z M-1102.799,2165.615c0,13.078-4.906,22.482-14.713,28.2
		c-7.967,4.696-19.515,7.05-34.637,7.05c-15.327,0-27.178-2.552-35.554-7.663c-10.017-6.133-15.017-15.835-15.017-29.117v-103.911
		c0-13.078,4.999-22.681,15.017-28.814c8.58-5.309,20.432-7.967,35.554-7.967c13.895,0,25.598,3.017,35.095,9.039
		c9.503,6.034,14.255,14.769,14.255,26.211V2165.615z M-995.214,2198.412h-42.61v-5.898c-2.249,2.273-5.668,4.231-10.265,5.879
		c-4.597,1.642-9.962,2.472-16.095,2.472c-8.995,0-16.398-2.354-22.222-7.05c-5.823-4.702-8.735-10.42-8.735-17.167v-152.028h42.604
		v141.007c0,5.309,2.453,7.954,7.36,7.954c2.453,0,4.293-0.656,5.514-1.982c1.227-1.326,1.84-3.209,1.84-5.662v-141.317h42.61
		V2198.412z M-992.761,1971.233v-77.633c0-9.77,3.74-16.945,11.219-21.527c6.415-3.967,15.265-5.952,26.567-5.952
		c10.993,0,19.541,1.754,25.646,5.267c7.479,4.272,11.224,11.298,11.224,21.069v32.056h-31.835v-31.83
		c0-2.138-0.458-3.74-1.375-4.809c-0.912-1.065-2.287-1.602-4.119-1.602c-1.527,0-2.828,0.532-3.892,1.597
		c-1.069,1.069-1.606,2.666-1.606,4.8v79.266c0,2.134,0.458,3.768,1.375,4.911s2.291,1.712,4.124,1.712s3.207-0.569,4.119-1.708
		c0.916-1.139,1.375-2.768,1.375-4.892v-31.186h31.835v31.603c0,9.771-3.666,16.797-10.993,21.068
		c-5.957,3.508-14.584,5.267-25.878,5.267c-11.451,0-20.305-1.907-26.567-5.725
		C-989.021,1988.405-992.761,1981.157-992.761,1971.233z M-885.487,2096.651h-42.61v-37.957c0-5.346-2.453-8.023-7.353-8.023
		c-2.453,0-4.293,0.619-5.52,1.846c-1.227,1.227-1.84,3.172-1.84,5.829v140.065h-42.604v-173.792h42.604v5.743
		c2.453-2.02,5.978-3.686,10.575-4.999c4.597-1.313,9.857-1.97,15.785-1.97c8.989,0,16.399,2.404,22.222,7.199
		c5.823,4.807,8.741,10.68,8.741,17.625V2096.651z M-879.411,1996.88h-31.83v-160.301h31.83v72.134l16.491-41.674h32.746
		l-22.902,56.934l30.687,72.907h-37.328l-19.694-46.946V1996.88z M-776.979,2164.085c0,13.078-5.012,22.68-15.023,28.807
		c-8.58,5.322-20.438,7.973-35.554,7.973c-14.713,0-26.162-2.354-34.333-7.05c-10.012-5.718-15.017-15.122-15.017-28.2v-37.09
		h42.604v36.533c0,2.85,0.626,5.024,1.877,6.548c1.258,1.524,3.035,2.286,5.334,2.286c2.292,0,4.015-0.762,5.167-2.286
		c1.152-1.524,1.722-3.698,1.722-6.542v-13.394c0-11.771-2.862-19.384-8.58-22.835c-7.769-4.089-15.017-7.973-21.764-11.647
		c-10.011-5.52-16.758-10.469-20.227-14.868c-3.482-4.392-5.21-10.674-5.21-18.852v-23.293c0-13.078,4.795-22.681,14.404-28.814
		c8.376-5.309,20.122-7.967,35.25-7.967c14.713,0,26.05,2.348,34.024,7.05c9.602,5.718,14.404,15.122,14.404,28.2v34.327h-41.991
		v-34.024c0-2.652-0.688-4.752-2.057-6.282c-1.369-1.536-2.936-2.298-4.69-2.298c-1.964,0-3.624,0.719-4.993,2.143
		c-1.369,1.431-2.057,3.575-2.057,6.437v16.244c0,7.155,2.961,12.675,8.89,16.553l16.553,8.89
		c12.056,6.338,19.508,10.935,22.377,13.79c5.923,5.724,8.89,13.592,8.89,23.604V2164.085z M-723.961,2171.606
		c1.226,1.524,3.066,2.286,5.52,2.286s4.293-0.756,5.514-2.28c1.227-1.524,1.84-3.705,1.84-6.548v-34.699h42.61v35.25
		c0,12.874-5.111,22.278-15.327,28.2c-8.177,4.696-19.824,7.05-34.947,7.05s-26.769-2.552-34.94-7.663
		c-9.807-6.133-14.713-15.835-14.713-29.117v-103.911c0-13.078,4.801-22.681,14.41-28.814c8.376-5.309,20.122-7.967,35.244-7.967
		c14.918,0,26.565,2.348,34.947,7.05c10.216,5.718,15.327,15.122,15.327,28.2v66.207h-57.323v40.206
		C-725.801,2167.907-725.188,2170.082-723.961,2171.606z"/>
</g>
<g>
	<path fill="#F29518" d="M-1172.974,2143.75v28.761c0,2.427,0.604,4.239,1.817,5.446c1.208,1.213,2.929,1.817,5.164,1.817
		c1.862,0,3.398-0.604,4.611-1.817c1.208-1.208,1.812-3.02,1.812-5.446v-40.766c-5.215,1.304-8.754,2.89-10.61,4.747
		C-1172.043,2138.355-1172.974,2140.776-1172.974,2143.75z"/>
	<path fill="#F29518" d="M-992.303,1682.594c-202.67,0-366.966,164.296-366.966,366.966s164.296,366.966,366.966,366.966
		s366.966-164.296,366.966-366.966S-789.633,1682.594-992.303,1682.594z M-992.761,1907.655c0-9.771,3.74-16.945,11.219-21.527
		c6.415-3.966,15.264-5.952,26.567-5.952c10.993,0,19.541,1.754,25.646,5.267c7.479,4.272,11.224,11.298,11.224,21.069v32.056
		h-31.835v-31.83c0-2.138-0.458-3.74-1.375-4.809c-0.912-1.065-2.286-1.601-4.119-1.601c-1.527,0-2.828,0.532-3.892,1.597
		c-1.069,1.069-1.606,2.666-1.606,4.8v79.266c0,2.134,0.458,3.767,1.375,4.911c0.916,1.143,2.291,1.712,4.124,1.712
		c1.833,0,3.208-0.569,4.119-1.708c0.916-1.139,1.375-2.768,1.375-4.892v-31.186h31.835v31.603c0,9.771-3.666,16.797-10.993,21.069
		c-5.957,3.508-14.584,5.267-25.878,5.267c-11.451,0-20.305-1.907-26.567-5.725c-7.48-4.582-11.219-11.83-11.219-21.754V1907.655z
		 M-1074.971,1966.279c0-10.382,7.137-19.009,21.411-25.878c14.274-6.869,21.411-11.678,21.411-14.427v-19.236
		c0-2.138-0.449-3.74-1.342-4.809c-0.898-1.065-2.245-1.601-4.036-1.601c-1.5,0-2.773,0.537-3.819,1.601
		c-1.041,1.069-1.564,2.671-1.564,4.809v25.646h-30.918v-25.873c0-9.618,3.897-16.639,11.682-21.069
		c6.257-3.513,15.033-5.267,26.336-5.267c11.293,0,19.768,1.912,25.419,5.725c6.716,4.429,10.076,11.678,10.076,21.754v103.279
		h-28.169v-5.036c-1.528,2.897-3.86,4.772-6.984,5.61c-3.133,0.838-7.595,1.259-13.399,1.259c-9.465,0-16.181-1.685-20.152-5.04
		c-3.971-3.356-5.952-8.47-5.952-15.343V1966.279z M-1221.28,2075.334h-38.814v-39.062c0-1.682-0.491-2.901-1.462-3.652
		c-0.976-0.751-2.534-1.123-4.679-1.123c-2.139,0-3.748,0.373-4.82,1.117c-1.072,0.751-1.603,1.964-1.603,3.646v136.234
		c0,1.501,0.632,2.67,1.896,3.505c1.264,0.841,2.777,1.264,4.526,1.264c2.145,0,3.703-0.423,4.679-1.264
		c0.971-0.841,1.462-2.009,1.462-3.51v-48.566h38.814v49.706c0,7.636-3.725,14.432-11.17,20.386
		c-8.562,6.891-19.641,10.334-33.232,10.334c-14.516,0-26.244-2.884-35.184-8.658c-9.679-6.327-14.516-15.171-14.516-26.527
		v-125.939c0-12.473,3.533-21.69,10.611-27.65c8.189-6.88,21.221-10.328,39.09-10.328c15.453,0,26.995,3.448,34.631,10.328
		c6.513,5.96,9.77,14.059,9.77,24.297V2075.334z M-1120.75,2202.115h-34.349v-6.141c-1.862,3.533-4.707,5.819-8.517,6.84
		c-3.821,1.022-9.262,1.535-16.339,1.535c-11.542,0-19.731-2.054-24.574-6.146c-4.843-4.092-7.258-10.328-7.258-18.709v-31.832
		c0-12.659,8.703-23.18,26.109-31.555c17.406-8.375,26.109-14.24,26.109-17.592v-23.456c0-2.608-0.547-4.56-1.637-5.864
		c-1.095-1.298-2.737-1.953-4.922-1.953c-1.829,0-3.381,0.655-4.656,1.953c-1.27,1.304-1.908,3.256-1.908,5.864v31.273h-37.702
		v-31.55c0-11.728,4.752-20.29,14.245-25.691c7.631-4.284,18.332-6.423,32.114-6.423c13.771,0,24.105,2.331,30.997,6.981
		c8.189,5.401,12.287,14.24,12.287,26.527V2202.115z M-1127.18,1933.991v76.943h-35.037v-160.301h35.037v63.664h9.845v-63.664
		h35.037v160.301h-35.037v-76.943H-1127.18z M-968.285,2202.115h-38.819v-126.763c0-4.848-2.229-7.275-6.7-7.275
		c-2.235,0-3.911,0.564-5.029,1.682c-1.112,1.117-1.671,2.89-1.671,5.311v127.045h-38.819v-127.045c0-4.848-2.235-7.27-6.7-7.27
		c-2.235,0-3.911,0.559-5.029,1.676c-1.118,1.123-1.676,2.895-1.676,5.317v127.322h-38.814v-158.33h38.814v5.509
		c2.235-1.84,5.537-3.403,9.916-4.696c4.369-1.287,9.076-1.93,14.099-1.93c7.264,0,12.383,0.92,15.363,2.76
		c3.533,3.132,6.603,5.802,9.211,8.009c1.676-2.021,5.351-4.323,11.034-6.903c5.672-2.574,11.311-3.866,16.892-3.866
		c8.003,0,14.663,2.28,19.968,6.841c5.305,4.566,7.958,9.911,7.958,16.057V2202.115z M-868.037,2182.287
		c0,6.146-2.613,11.356-7.822,15.64c-5.215,4.278-12.005,6.423-20.386,6.423c-5.21,0-9.962-0.559-14.24-1.676
		c-4.284-1.117-7.54-2.511-9.775-4.188v37.137h-38.813v-191.838h29.32l3.352,6.423c2.602-2.049,4.927-3.539,6.982-4.47
		c4.092-2.049,9.307-3.07,15.64-3.07c11.169,0,20.104,2.884,26.803,8.652c5.96,5.029,8.94,10.802,8.94,17.316V2182.287z
		 M-879.411,1963.988v46.946h-31.83v-160.301h31.83v72.134l16.491-41.674h32.746l-22.902,56.934l30.687,72.907h-37.328
		L-879.411,1963.988z M-768.63,2202.115h-38.819v-5.373c-2.049,2.071-5.164,3.855-9.352,5.356
		c-4.188,1.496-9.076,2.252-14.663,2.252c-8.195,0-14.939-2.145-20.245-6.423c-5.306-4.284-7.958-9.493-7.958-15.64v-138.502h38.813
		v128.462c0,4.837,2.235,7.247,6.705,7.247c2.235,0,3.911-0.598,5.023-1.806c1.117-1.208,1.676-2.924,1.676-5.159v-128.744h38.819
		V2202.115z M-682.91,2197.085c-7.817,4.848-18.619,7.264-32.391,7.264c-13.404,0-23.834-2.145-31.279-6.423
		c-9.12-5.21-13.681-13.777-13.681-25.691v-33.791h38.814v33.283c0,2.596,0.57,4.577,1.71,5.966c1.146,1.388,2.766,2.083,4.86,2.083
		c2.088,0,3.657-0.694,4.707-2.083c1.05-1.388,1.569-3.37,1.569-5.96v-12.202c0-10.723-2.608-17.66-7.817-20.804
		c-7.077-3.725-13.681-7.264-19.827-10.61c-9.121-5.029-15.267-9.538-18.428-13.546c-3.172-4.001-4.746-9.724-4.746-17.174v-21.221
		c0-11.914,4.368-20.663,13.122-26.25c7.631-4.837,18.331-7.258,32.114-7.258c13.404,0,23.733,2.139,30.996,6.423
		c8.748,5.209,13.122,13.777,13.122,25.691v31.273h-38.254v-30.997c0-2.416-0.627-4.329-1.874-5.723
		c-1.247-1.4-2.675-2.094-4.272-2.094c-1.789,0-3.302,0.655-4.549,1.953c-1.247,1.304-1.874,3.256-1.874,5.864v14.799
		c0,6.519,2.698,11.547,8.099,15.08l15.08,8.099c10.983,5.774,17.773,9.961,20.386,12.563c5.396,5.215,8.099,12.383,8.099,21.504
		v23.738C-669.223,2182.756-673.789,2191.504-682.91,2197.085z"/>
	<path fill="#F29518" d="M-913.556,2067.241c-2.235,0-3.911,0.604-5.029,1.812c-1.117,1.213-1.676,3.031-1.676,5.446v98.295
		c0,2.235,0.604,3.956,1.817,5.164c1.208,1.213,2.833,1.817,4.888,1.817c4.464,0,6.7-2.416,6.7-7.264v-98.013
		C-906.856,2069.662-909.091,2067.241-913.556,2067.241z"/>
	<path fill="#F29518" d="M-1037.416,1992.615c1.527,0,2.786-0.495,3.781-1.49c0.99-0.99,1.486-2.476,1.486-4.466v-33.431
		c-4.276,1.069-7.179,2.37-8.701,3.893c-1.527,1.527-2.291,3.513-2.291,5.952v23.586c0,1.99,0.495,3.476,1.49,4.466
		C-1040.66,1992.12-1039.249,1992.615-1037.416,1992.615z"/>
</g>
<g>
	<path fill="#F29518" d="M-1072.995,2056.091c-3.443-1.654-8.458-2.489-15.044-2.489v113.28c6.895,0,11.283-0.454,13.164-1.363
		c4.706-2.398,7.059-7.513,7.059-15.335V2070.3C-1067.816,2062.487-1069.542,2057.745-1072.995,2056.091z"/>
	<path fill="#F29518" d="M-904.07,1934.044c-2.507-1.199-7.05-1.799-13.618-1.799v234.636c7.204,0,11.738-0.454,13.618-1.363
		c4.706-2.398,7.05-7.513,7.05-15.335v-201.249C-897.02,1941.421-899.364,1936.452-904.07,1934.044z"/>
	<path fill="#F29518" d="M-1072.995,1934.717c-3.443-1.644-8.458-2.471-15.044-2.471v86.752c6.895,0,11.283-0.454,13.164-1.354
		c4.706-2.389,7.059-7.486,7.059-15.281v-53.492C-1067.816,1941.085-1069.542,1936.361-1072.995,1934.717z"/>
	<path fill="#F29518" d="M-992.303,1692.961c-196.943,0-356.598,159.654-356.598,356.598c0,196.944,159.655,356.598,356.598,356.598
		c196.944,0,356.598-159.654,356.598-356.598C-635.705,1852.616-795.359,1692.961-992.303,1692.961z M-1000.843,2144.778
		c0,17.706-5.551,32.106-16.635,43.208c-12.283,12.601-29.662,18.896-52.138,18.896h-87.197v-314.647h81.355
		c22.767,0,40.528,5.097,53.265,15.263c12.728,10.175,19.105,23.639,19.105,40.401v43.535c0,9.585-1.944,17.507-5.805,23.793
		c-6.25,9.584-17.706,17.207-34.368,22.894c17.561,4.497,29.626,11.401,36.167,20.705c4.161,5.996,6.25,14.245,6.25,24.747V2144.778
		z M-827.793,2144.769c0,17.361-5.996,31.733-17.979,43.108c-13.191,12.673-31.016,19.005-53.492,19.005h-87.197v-314.647h86.752
		c22.467,0,40.301,6.187,53.483,18.561c12.283,11.374,18.433,25.901,18.433,43.553V2144.769z"/>
</g>
<g>
	<path fill="#F29518" d="M-1116.221,1934.044c-2.508-1.199-7.05-1.799-13.618-1.799v234.636c7.204,0,11.738-0.454,13.618-1.363
		c4.706-2.398,7.05-7.513,7.05-15.335v-201.249C-1109.171,1941.421-1111.515,1936.452-1116.221,1934.044z"/>
	<path fill="#F29518" d="M-992.303,1692.961c-196.944,0-356.598,159.654-356.598,356.598c0,196.944,159.654,356.598,356.598,356.598
		s356.598-159.654,356.598-356.598C-635.705,1852.616-795.359,1692.961-992.303,1692.961z M-1039.944,2144.769
		c0,17.361-5.996,31.733-17.979,43.108c-13.191,12.674-31.016,19.006-53.492,19.006h-87.197v-314.647h86.752
		c22.467,0,40.301,6.187,53.483,18.561c12.283,11.374,18.433,25.901,18.433,43.553V2144.769z M-785.994,2206.882h-62.032v-176.647
		l-35.813,176.647h-47.478l-41.218-176.647v176.647h-54.382v-314.647h89.441l31.243,163.165l28.091-163.165h92.148V2206.882z"/>
</g>
<g>
	<path fill="#F29518" d="M-909.689,1934.044c-2.508-1.199-7.05-1.799-13.618-1.799v234.636c7.205,0,11.738-0.454,13.618-1.363
		c4.706-2.398,7.05-7.513,7.05-15.335v-201.249C-902.639,1941.421-904.983,1936.452-909.689,1934.044z"/>
	<path fill="#F29518" d="M-992.303,1692.961c-196.944,0-356.598,159.654-356.598,356.598c0,196.944,159.655,356.598,356.598,356.598
		c196.943,0,356.598-159.654,356.598-356.598C-635.705,1852.616-795.359,1692.961-992.303,1692.961z M-1005.108,1932.691h-38.656
		v274.191h-68.772v-274.191h-38.656v-40.455h146.085V1932.691z M-833.412,2144.769c0,17.361-5.996,31.733-17.979,43.108
		c-13.191,12.673-31.016,19.005-53.492,19.005h-87.197v-314.647h86.752c22.467,0,40.301,6.187,53.483,18.561
		c12.283,11.374,18.433,25.901,18.433,43.553V2144.769z"/>
</g>
<g>
	<path fill="#F29518" d="M-906.091,1933.368c-2.507-1.199-7.05-1.799-13.618-1.799v234.636c7.204,0,11.738-0.454,13.618-1.363
		c4.706-2.398,7.05-7.513,7.05-15.335v-201.249C-899.042,1940.745-901.385,1935.775-906.091,1933.368z"/>
	<path fill="#F29518" d="M-992.303,1692.961c-196.944,0-356.598,159.654-356.598,356.598c0,196.944,159.655,356.598,356.598,356.598
		c196.943,0,356.598-159.654,356.598-356.598C-635.705,1852.616-795.359,1692.961-992.303,1692.961z M-1003.318,2002.131h-62.477
		v-62.877c0-2.707-0.79-4.669-2.353-5.878c-1.572-1.208-4.079-1.808-7.531-1.808c-3.443,0-6.032,0.6-7.758,1.799
		c-1.726,1.208-2.58,3.162-2.58,5.869v219.291c0,2.417,1.017,4.297,3.052,5.642c2.035,1.354,4.47,2.035,7.286,2.035
		c3.452,0,5.96-0.681,7.531-2.035c1.563-1.354,2.353-3.234,2.353-5.651v-78.175h62.477v80.011c0,12.292-5.996,23.23-17.979,32.814
		c-13.782,11.093-31.615,16.635-53.492,16.635c-23.367,0-42.245-4.642-56.636-13.936c-15.581-10.184-23.366-24.42-23.366-42.699
		v-202.721c0-20.078,5.687-34.913,17.079-44.507c13.182-11.074,34.159-16.625,62.922-16.625c24.874,0,43.453,5.551,55.745,16.625
		c10.484,9.594,15.726,22.63,15.726,39.11V2002.131z M-829.815,2144.092c0,17.361-5.996,31.734-17.979,43.108
		c-13.191,12.673-31.016,19.006-53.492,19.006h-87.197v-314.647h86.752c22.467,0,40.301,6.187,53.483,18.56
		c12.283,11.374,18.433,25.901,18.433,43.553V2144.092z"/>
</g>
<g>
	<path fill="#F29518" d="M-906.468,1934.699c-3.907-1.635-9.294-2.453-16.162-2.453v84.499c7.177,0,11.865-0.436,14.054-1.335
		c5.315-2.38,7.967-7.45,7.967-15.199v-51.43C-900.609,1941.04-902.562,1936.343-906.468,1934.699z"/>
	<path fill="#F29518" d="M-992.303,1692.961c-196.944,0-356.598,159.654-356.598,356.598c0,196.944,159.654,356.598,356.598,356.598
		s356.598-159.654,356.598-356.598C-635.705,1852.616-795.359,1692.961-992.303,1692.961z M-1006.239,2206.882h-68.773v-151.027
		h-19.323v151.027h-68.773v-314.647h68.773v124.963h19.323v-124.963h68.773V2206.882z M-890.27,2206.882
		c-3.897-4.497-6.596-11.156-8.094-20.005c-1.499-8.83-2.244-21.349-2.244-37.529v-77.313c0-7.786-1.953-12.51-5.86-14.163
		c-3.907-1.635-9.294-2.471-16.162-2.471v151.481h-68.773v-314.647h85.398c22.767,0,40.528,5.069,53.265,15.217
		c12.737,10.139,19.106,23.557,19.106,40.246v37.575c0,10.439-1.635,18.497-4.906,24.157c-5.96,10.439-18.461,18.788-37.511,25.047
		c17.561,4.506,29.617,11.556,36.167,21.158c4.161,6.305,6.25,15.009,6.25,26.11v67.964c0.6,11.111,1.19,19.514,1.799,25.22
		c2.09,17.697,5.542,28.354,10.339,31.951H-890.27z"/>
</g>
<g>
	<path fill="#EC651A" d="M-992.303,1418.795c-348.362,0-630.765,282.403-630.765,630.765s282.403,630.764,630.765,630.764
		s630.764-282.403,630.764-630.764S-643.941,1418.795-992.303,1418.795z M-473.051,1962.58c2.331,14.016,4.113,28.216,5.313,42.583
		c-3.567-4.055-8.22-9.063-14.042-15.099c-8.211-8.388-16.976-17.328-26.289-26.822c-6.658-7.109-9.985-14.44-9.985-22v-21.663
		c0-2.442,0.688-4.221,2.069-5.335c1.382-1.107,3.451-1.666,6.215-1.666c2.302,0,4.201,0.616,5.696,1.837
		c1.496,1.221,2.246,2.945,2.246,5.164v43.001H-473.051z M-1496.033,1896.212v306.694c-14.753-48.523-22.715-100.002-22.715-153.347
		C-1518.748,1996.214-1510.786,1944.735-1496.033,1896.212z M-1489.847,2221.93h112.321v161.383c0,9.599,0.694,18.655,2.029,27.189
		C-1425.927,2356.983-1465.261,2292.905-1489.847,2221.93z M-1368.79,1929.528c0,11.145-3.365,18.424-10.093,21.85
		c-2.69,1.284-8.965,1.927-18.826,1.927v-124.03c9.418,0,16.587,1.185,21.518,3.534c4.929,2.36,7.401,9.108,7.401,20.244V1929.528z
		 M-1376.191,2006.343c4.929,2.371,7.401,9.138,7.401,20.314v114.21c0,11.187-3.365,18.496-10.093,21.93
		c-2.69,1.295-8.965,1.938-18.826,1.938v-161.945C-1388.29,2002.789-1381.122,2003.974-1376.191,2006.343z M-694.883,2483.962
		v-337.076h87.803v-17.542h-195.553v17.542h86.192v351.105c-42.421,26.152-88.831,46.44-138.108,59.765v-428.413h-22.363v433.942
		c-37.139,8.306-75.747,12.719-115.391,12.719c-42.943,0-84.671-5.18-124.63-14.881l0.247-414.85l26.187,64.038
		c8.307,21.927,14.018,36.389,16.975,42.989l105.215,246.174h24.831v-370.131h-18.351v203.109c0,1.57,0.512,20.875,2.944,103.924
		l0.251,36.43l-42.622-98.953l-108.787-244.51h-25.244v426.998c-49.688-13.991-96.39-35.097-138.952-62.141
		c24.06-1.933,43.236-10.917,58.39-27.319c17.147-18.552,25.841-44.058,25.841-75.806v-261.732h-22.362v261.732
		c0,26.775-6.471,47.86-19.234,62.67c-13.031,15.117-30.536,22.781-52.029,22.781c-7.124,0-13.777-0.809-19.951-2.407
		c-14.114-10.366-27.697-21.409-40.691-33.1c-7.216-13.637-10.892-30.354-10.892-49.944v-169.991
		c24.398-2.602,43.853-11.315,58.347-26.175c15.847-15.866,23.779-36.46,23.779-61.775v-87.5c0-15.011-2.983-26.81-8.937-35.384
		c-9.36-13.295-26.599-23.167-51.704-29.602c23.818-8.123,40.196-19.03,49.133-32.724c5.524-8.989,8.294-20.325,8.294-34.021
		v-62.246c0-23.957-9.108-43.208-27.313-57.757c-18.214-14.539-43.598-21.82-76.153-21.82h-60.009
		c45.879-73.821,109.49-135.47,184.916-178.944l47.816,271.589h19.056l18.94-116.278c2.251-13.702,4.941-33.228,8.075-58.581
		l5.012,38.466l21.823,136.393h19.261l37.222-204.809h-20.556l-19.286,124.45l-6.773,47.899l-6.753-47.899l-20.995-124.45h-19.499
		l-19.108,121.365c-0.587,3.43-1.176,8.034-1.763,13.809l-4.997,37.175c-1.57-10.479-2.601-18.022-3.092-22.629
		c-1.57-13.123-2.652-21.547-3.239-25.27l-31.385-202.033c72.64-37.818,155.19-59.219,242.748-59.219
		c23.222,0,46.088,1.52,68.515,4.435h-11.106v49.091h32.576v6.099c0,6.483-0.486,13.182-1.443,19.911
		c-1.009,7.052-2.968,13.531-5.827,19.254c-2.976,5.96-6.9,10.847-11.665,14.528c-3.696,2.851-8.081,4.688-13.09,5.494v15.595
		c6.946-0.668,13.032-2.512,18.148-5.507c6.724-3.94,12.375-9.261,16.8-15.819c4.535-6.715,7.959-14.696,10.174-23.713
		c2.265-9.246,3.415-19.253,3.415-29.744v-48.842c172.27,35.392,313.813,154.949,379.824,313.798h-226.783v-81.337h75.17v-17.031
		h-75.17v-72.087h79.574v-17.324h-99.541v204.809h253.474c2.225,5.932,4.357,11.908,6.372,17.939
		c-4.767-0.776-9.92-1.213-15.567-1.213c-21.192,0-36.648,4.087-46.359,12.253c-8.392,7.068-12.582,17.994-12.582,32.782v26.159
		c0,8.609,3.88,17.881,11.646,27.815c1.774,2.209,9.985,11.041,24.628,26.49c8.873,9.536,17.193,18.295,24.964,26.274
		c2.882,3.766,4.325,8.867,4.325,15.294v27.603c0,2.664-0.803,4.662-2.401,5.991c-1.599,1.331-3.999,1.992-7.196,1.992
		c-2.742,0-5.087-0.719-7.027-2.162c-1.945-1.439-2.912-3.384-2.912-5.826v-53.602h-46.027v52.982
		c0,10.818,3.642,19.868,10.927,27.153c9.711,9.934,25.053,14.901,46.027,14.901c18.031,0,31.72-2.846,41.21-8.445
		C-486.744,2264.662-572.028,2399.686-694.883,2483.962z"/>
	<path fill="#EC651A" d="M-1191.23,2078.465c0,2.215-0.688,3.927-2.064,5.144c-1.376,1.215-3.559,1.821-6.54,1.821
		c-2.981,0-5.221-0.606-6.711-1.821c-1.49-1.216-2.235-2.929-2.235-5.144v-195.357h-50.663v192.719
		c0,13.468,5.846,23.955,17.549,31.457c10.814,6.845,24.836,10.266,42.054,10.266c17.219,0,31.4-3.643,42.55-10.927
		c11.145-7.286,16.722-17.659,16.722-31.126v-192.388h-50.663V2078.465z"/>
	<path fill="#EC651A" d="M-1044.359,1990.064c-8.211-8.388-16.976-17.328-26.289-26.822c-6.658-7.109-9.985-14.44-9.985-22v-21.663
		c0-2.442,0.688-4.221,2.069-5.335c1.382-1.107,3.451-1.666,6.215-1.666c2.302,0,4.201,0.616,5.696,1.837
		c1.496,1.221,2.246,2.945,2.246,5.164v43.001h46.027v-40.068c0-12.137-3.865-21.74-11.59-28.808
		c-9.054-8.165-22.74-12.253-41.06-12.253c-21.193,0-36.648,4.087-46.359,12.253c-8.392,7.068-12.582,17.994-12.582,32.782v26.159
		c0,8.609,3.88,17.881,11.646,27.815c1.774,2.209,9.985,11.041,24.628,26.49c8.873,9.536,17.193,18.295,24.964,26.274
		c2.882,3.766,4.325,8.867,4.325,15.294v27.603c0,2.664-0.803,4.662-2.401,5.991c-1.599,1.331-3.999,1.992-7.196,1.992
		c-2.742,0-5.087-0.719-7.027-2.162c-1.945-1.439-2.912-3.384-2.912-5.826v-53.602h-46.027v52.982
		c0,10.818,3.642,19.868,10.927,27.153c9.711,9.934,25.053,14.901,46.027,14.901c22.072,0,37.75-4.191,47.021-12.583
		c7.947-7.286,11.921-18.543,11.921-33.776v-29.471c0-9.934-3.218-19.423-9.65-28.477
		C-1026.835,2008.83-1033.711,2001.105-1044.359,1990.064z"/>
	<rect x="-1003.15" y="1883.108" fill="#EC651A" width="50.663" height="231.793"/>
	<polygon fill="#EC651A" points="-855.8,1988.863 -884.94,1883.108 -942.888,1883.108 -942.888,2114.9 -900.503,2114.9 
		-900.503,1991.264 -865.734,2114.9 -813.415,2114.9 -813.415,1883.108 -855.8,1883.108 	"/>
	<polygon fill="#EC651A" points="-751.497,2003.64 -707.788,2003.64 -707.788,1975.162 -751.497,1975.162 -751.497,1912.578 
		-703.152,1912.578 -703.152,1883.108 -802.16,1883.108 -802.16,2114.9 -702.489,2114.9 -702.489,2085.43 -751.497,2085.43 	"/>
	<path fill="#EC651A" d="M-608.601,1990.064c-8.211-8.388-16.976-17.328-26.289-26.822c-6.658-7.109-9.985-14.44-9.985-22v-21.663
		c0-2.442,0.688-4.221,2.069-5.335c1.382-1.107,3.451-1.666,6.215-1.666c2.302,0,4.201,0.616,5.696,1.837
		c1.496,1.221,2.246,2.945,2.246,5.164v43.001h46.027v-40.068c0-12.137-3.865-21.74-11.59-28.808
		c-9.054-8.165-22.74-12.253-41.06-12.253c-21.193,0-36.648,4.087-46.359,12.253c-8.392,7.068-12.582,17.994-12.582,32.782v26.159
		c0,8.609,3.88,17.881,11.647,27.815c1.774,2.209,9.985,11.041,24.628,26.49c8.873,9.536,17.193,18.295,24.964,26.274
		c2.882,3.766,4.325,8.867,4.325,15.294v27.603c0,2.664-0.803,4.662-2.401,5.991c-1.599,1.331-3.999,1.992-7.196,1.992
		c-2.742,0-5.087-0.719-7.027-2.162c-1.945-1.439-2.912-3.384-2.912-5.826v-53.602h-46.027v52.982
		c0,10.818,3.642,19.868,10.927,27.153c9.711,9.934,25.053,14.901,46.027,14.901c22.072,0,37.75-4.191,47.021-12.583
		c7.947-7.286,11.922-18.543,11.922-33.776v-29.471c0-9.934-3.219-19.423-9.65-28.477
		C-591.077,2008.83-597.953,2001.105-608.601,1990.064z"/>
	<polygon fill="#EC651A" points="-958.39,1847.695 -1037.964,1847.695 -1037.964,1766.358 -962.794,1766.358 -962.794,1749.328 
		-1037.964,1749.328 -1037.964,1677.24 -958.39,1677.24 -958.39,1659.916 -1057.93,1659.916 -1057.93,1864.725 -958.39,1864.725 	
		"/>
	<path fill="#EC651A" d="M-778.423,1864.725l-12.039-60.929c-2.448-12.039-6.045-21.165-10.791-27.382
		c-4.749-6.214-12.063-10.593-21.948-13.139c14.388-4.699,24.981-11.672,31.785-20.922c6.803-9.249,10.204-20.186,10.204-32.813
		c0-16.738-5.409-29.191-16.223-37.365c-10.815-8.17-25.131-12.259-42.943-12.259h-49.33v204.809h19.526v-93.668h22.16
		c11.739,0,20.715,3.474,26.927,10.426c6.213,6.951,10.64,18.257,13.282,33.917l8.103,49.326H-778.423z M-849.776,1754.466h-20.408
		v-76.639h30.685c12.723,0,22.266,2.815,28.629,8.442c6.362,5.63,9.544,14.121,9.544,25.474c0,13.116-4.455,23.516-13.361,31.198
		C-823.595,1750.626-835.292,1754.466-849.776,1754.466z"/>
</g>
<g>
	<path fill="#EC651A" d="M-992.303,1422.181c-346.491,0-627.378,280.887-627.378,627.378s280.887,627.377,627.378,627.377
		c346.491,0,627.378-280.886,627.378-627.377S-645.812,1422.181-992.303,1422.181z M-1450.838,1796.598v505.922
		c-41.458-74.989-65.084-161.21-65.084-252.961C-1515.922,1957.809-1492.296,1871.587-1450.838,1796.598z M-619.916,2417.63
		v-277.266h91.385v-18.258h-203.531v18.258h89.708v298.669c-42.267,38.003-90.749,69.222-143.742,91.95v-408.877h-23.275v418.198
		c-56.95,21.238-118.579,32.874-182.932,32.874c-22.658,0-44.979-1.441-66.878-4.233l0.256-429.218l27.254,66.651
		c8.646,22.822,14.59,37.873,17.668,44.742l109.507,256.217h25.845v-385.23h-19.099V2333.5c0,1.634,0.533,21.727,3.064,108.164
		l0.261,37.916l-44.36-102.99l-113.225-254.485h-26.274v444.005c-65.896-10.888-127.638-34.063-182.793-67.118
		c8.442,2.176,17.604,3.275,27.561,3.275c30.094,0,53.444-9.437,71.384-28.854c17.847-19.309,26.896-45.855,26.896-78.899v-272.409
		h-23.274v272.409c0,27.867-6.735,49.813-20.019,65.227c-13.562,15.734-31.781,23.71-54.151,23.71
		c-23.402,0-41.956-8.324-55.148-24.738c-12.808-15.928-19.303-37.528-19.303-64.2v-272.409h-23.275v264.329
		c0,33.694,7.947,61.174,23.598,81.786c-46.545-35.021-87.071-77.611-119.726-125.96h63.86v-463.453h93.803v-49.558h-93.803v-108.91
		h101.872v-51.286h-91.185c29.777-28.157,62.845-52.868,98.587-73.468l47.559,270.131h18.954l18.838-115.654
		c2.239-13.629,4.914-33.05,8.031-58.266l4.985,38.259l21.706,135.661h19.158l37.023-203.709h-20.446l-19.182,123.782l-6.736,47.642
		l-6.716-47.642l-20.882-123.782h-19.394l-19.005,120.713c-0.584,3.411-1.17,7.991-1.754,13.735l-4.97,36.976
		c-1.562-10.423-2.587-17.925-3.075-22.507c-1.562-13.053-2.638-21.432-3.222-25.134l-31.217-200.949
		c72.25-37.614,154.356-58.901,241.445-58.901c23.097,0,45.84,1.511,68.146,4.411h-11.045v48.827h32.401v6.066
		c0,6.448-0.483,13.111-1.436,19.804c-1.003,7.015-2.952,13.458-5.796,19.151c-2.96,5.928-6.863,10.788-11.602,14.45
		c-3.676,2.836-8.037,4.663-13.019,5.464v15.512c6.909-0.665,12.962-2.499,18.051-5.477c6.688-3.919,12.309-9.212,16.709-15.734
		c4.51-6.679,7.916-14.617,10.12-23.586c2.253-9.196,3.396-19.15,3.396-29.584v-48.579
		c171.345,35.202,312.127,154.117,377.784,312.113h-225.565v-80.9h74.766v-16.939h-74.766v-71.7h79.147v-17.231h-99.006v203.709
		h252.113c21.455,57.204,33.219,119.145,33.219,183.842c0,5.501-0.114,10.975-0.282,16.436h-36.715v-163.038h-41.094v186.786h76.571
		C-479.88,2217.24-535.234,2331.961-619.916,2417.63z"/>
	<polygon fill="#EC651A" points="-958.572,1848.778 -1037.719,1848.778 -1037.719,1767.879 -962.952,1767.879 -962.952,1750.939 
		-1037.719,1750.939 -1037.719,1679.239 -958.572,1679.239 -958.572,1662.008 -1057.578,1662.008 -1057.578,1865.718 
		-958.572,1865.718 	"/>
	<path fill="#EC651A" d="M-802.279,1777.881c-4.723-6.181-11.998-10.536-21.83-13.069c14.311-4.674,24.847-11.609,31.614-20.81
		c6.766-9.2,10.149-20.078,10.149-32.636c0-16.648-5.38-29.034-16.136-37.165c-10.758-8.126-24.996-12.193-42.713-12.193h-49.065
		v203.709h19.421v-93.165h22.041c11.676,0,20.604,3.456,26.782,10.369c6.179,6.914,10.583,18.159,13.211,33.735l8.06,49.061h21.174
		l-11.974-60.602C-793.981,1793.142-797.559,1784.065-802.279,1777.881z M-850.542,1756.051h-20.298v-76.227h30.52
		c12.655,0,22.146,2.8,28.476,8.396c6.328,5.6,9.492,14.045,9.492,25.337c0,13.046-4.43,23.39-13.289,31.03
		C-824.501,1752.231-836.135,1756.051-850.542,1756.051z"/>
	<path fill="#EC651A" d="M-1282.958,2060.382c0,1.786-0.553,3.166-1.663,4.146c-1.108,0.979-2.868,1.467-5.27,1.467
		c-2.402,0-4.207-0.488-5.407-1.467c-1.202-0.98-1.802-2.36-1.802-4.146v-157.425h-40.825v155.299
		c0,10.854,4.71,19.304,14.142,25.35c8.713,5.515,20.013,8.271,33.889,8.271s25.303-2.935,34.289-8.805
		c8.98-5.872,13.475-14.23,13.475-25.084v-155.033h-40.827V2060.382z"/>
	<polygon fill="#EC651A" points="-1163.416,1988.178 -1186.897,1902.957 -1233.594,1902.957 -1233.594,2089.743 -1199.439,2089.743 
		-1199.439,1990.114 -1171.421,2089.743 -1129.26,2089.743 -1129.26,1902.957 -1163.416,1902.957 	"/>
	<path fill="#EC651A" d="M-1072.695,1901.624c-17.077,0-29.532,3.293-37.357,9.873c-6.764,5.695-10.14,14.5-10.14,26.417v120.342
		c0,10.854,4.623,19.304,13.875,25.35c8.54,5.515,19.747,8.271,33.622,8.271c12.983,0,23.57-3.29,31.754-9.873
		c7.113-5.69,10.673-12.181,10.673-19.479v-47.497h-37.09v46.405c0,1.434-0.467,2.551-1.396,3.355
		c-0.933,0.805-2.423,1.206-4.47,1.206c-1.676,0-3.119-0.4-4.328-1.206c-1.209-0.8-1.813-1.917-1.813-3.347v-130.183
		c0-1.605,0.508-2.764,1.533-3.481c1.025-0.713,2.56-1.072,4.607-1.072c2.047,0,3.537,0.359,4.47,1.076
		c0.93,0.717,1.396,1.881,1.396,3.49v37.328h37.09v-33.889c0-9.78-3.113-17.518-9.338-23.213
		C-1046.904,1904.917-1057.932,1901.624-1072.695,1901.624z"/>
	<polygon fill="#EC651A" points="-1022.532,1926.972 -999.583,1926.972 -999.583,2089.743 -958.758,2089.743 -958.758,1926.972 
		-935.81,1926.972 -935.81,1902.957 -1022.532,1902.957 	"/>
	<rect x="-928.073" y="1902.957" fill="#EC651A" width="40.827" height="186.786"/>
	<path fill="#EC651A" d="M-797.326,1910.962c-7.65-6.225-19.304-9.338-34.955-9.338c-17.077,0-29.444,3.293-37.09,9.873
		c-6.764,5.695-10.14,14.5-10.14,26.417v120.342c0,11.032,4.357,19.392,13.075,25.084c8.713,5.695,20.013,8.538,33.889,8.538
		c13.875,0,25.125-2.935,33.755-8.805c8.627-5.872,12.942-14.23,12.942-25.084v-120.342
		C-785.85,1926.086-789.679,1917.193-797.326,1910.962z M-825.609,2060.372c0,1.784-0.555,3.167-1.665,4.151
		c-1.108,0.984-2.868,1.472-5.27,1.472c-2.402,0-4.207-0.488-5.407-1.472c-1.202-0.984-1.802-2.367-1.802-4.151v-127.774
		c0-1.964,0.6-3.394,1.802-4.286c1.2-0.892,3.005-1.339,5.407-1.339c2.402,0,4.162,0.447,5.27,1.339
		c1.11,0.892,1.665,2.322,1.665,4.286V2060.372z"/>
	<polygon fill="#EC651A" points="-707.404,1988.178 -730.886,1902.957 -777.583,1902.957 -777.583,2089.743 -743.427,2089.743 
		-743.427,1990.114 -715.409,2089.743 -673.248,2089.743 -673.248,1902.957 -707.404,1902.957 	"/>
	<path fill="#EC651A" d="M-636.089,1902.957l-30.758,186.786h40.292l7.113-50.165h18.866l7.108,50.165h40.294l-30.758-186.786
		H-636.089z M-615.891,2013.961l5.746-56.035l6.016,56.035H-615.891z"/>
</g>
<g>
	<path fill="#F29518" d="M-1173.702,2251.941h-45.584v38.708h49.563v-34.729
		C-1169.723,2253.389-1171.172,2251.941-1173.702,2251.941z"/>
	<rect x="-1219.286" y="2318.504" fill="#F29518" width="49.563" height="35.453"/>
	<path fill="#F29518" d="M-707.799,2273.284h-203.309c-3.258,0-4.703,1.449-4.703,4.703v70.543h212.351v-70.543
		C-703.459,2274.733-704.544,2273.284-707.799,2273.284z"/>
	<path fill="#F29518" d="M-992.303,1413.639c-351.209,0-635.92,284.711-635.92,635.921c0,351.209,284.711,635.92,635.92,635.92
		c351.21,0,635.921-284.711,635.921-635.92C-356.382,1698.35-641.093,1413.639-992.303,1413.639z M-1323.833,1930.021l-17.004-26.41
		l47.754-20.619v-82.843h-41.966v-30.75h41.966v-65.839h30.75v65.839h33.644v30.75h-33.644v65.839l24.237-16.64l18.81,23.877
		c-10.491,7.594-28.577,18.086-43.047,26.768v100.932c0,10.491-5.788,34.368-31.114,34.368c-9.767,0-23.152-2.534-40.153-7.237
		l1.809-31.835l17.364,6.513c5.064,1.085,9.043,1.809,11.937,1.809c4.703,0,9.406-0.724,9.406-11.94v-77.055L-1323.833,1930.021z
		 M-1140.422,2398.093h-29.301v-15.919h-131.682v15.919h-29.301v-169.304c-0.36-2.894,1.085-4.703,4.703-4.703h179.432
		c4.34,0,6.149,2.169,6.149,6.152V2398.093z M-1323.472,2202.017v-70.903c0-2.533,1.085-3.979,3.618-3.979h166.771
		c2.894,0,4.34,1.445,4.34,3.979v70.903c0,2.533-1.445,3.982-4.34,3.982h-166.771
		C-1322.387,2206-1323.472,2204.551-1323.472,2202.017z M-1138.252,2105.068h-192.454v-27.856h192.454V2105.068z
		 M-1016.701,2359.382c0,13.025-6.149,36.538-39.793,36.538c-12.3,0-28.216-2.53-47.75-7.597l0.721-32.196
		c17.364,5.789,31.113,8.682,40.517,8.682c13.025,0,15.558-5.064,15.558-13.385v-286.149h30.747V2359.382z M-1115.1,2315.61
		v-220.673h30.75v220.673H-1115.1z M-1025.02,2036.013c-35.092-15.555-66.927-35.45-95.868-58.966
		c-35.089,27.131-73.797,46.305-115.399,57.16l-19.173-28.219c46.305-11.937,83.564-28.577,112.144-48.475
		c-22.068-20.983-44.135-48.475-67.288-82.482l25.325-17.364c22.428,34.368,43.411,61.139,63.306,80.673
		c41.241-44.135,59.69-85.737,59.69-89.352c0-2.897-2.17-3.982-4.703-3.619h-145.064v-30.75h70.182v-48.475h-84.292v-30.75h84.292
		v-32.92h30.386v32.92h96.229v30.75h-96.229v48.475h77.779l13.022,10.491c-18.81,62.945-36.538,83.928-78.14,133.127
		c24.601,18.089,56.436,35.09,94.779,50.284L-1025.02,2036.013z M-730.23,1718.751h79.588v27.856h-79.588V1718.751z
		 M-767.853,1701.75c9.767,18.088,17.364,32.195,20.622,41.241l-25.686,9.767l-20.259-39.432L-767.853,1701.75z M-753.382,1943.403
		h19.537v27.856h-41.605c-8.679,0-13.382-4.703-13.382-13.746v-128.063h27.856v106.359
		C-760.977,1940.873-758.446,1943.403-753.382,1943.403z M-879.997,1763.971h45.22v-62.945h29.301v62.945h51.733v27.856h-51.733
		v243.102h-29.301v-243.102h-45.22V1763.971z M-851.417,1825.11v23.152c-2.169,65.839-9.767,115.399-22.431,148.319l-28.217-4.7
		c15.195-40.156,22.792-88.271,22.792-143.619v-23.152H-851.417z M-922.684,1702.111l26.407,13.025
		c-17.365,38.708-39.432,70.182-65.479,94.055c-6.149-9.406-12.661-15.916-18.449-20.619
		C-954.882,1766.144-935.345,1737.203-922.684,1702.111z M-909.298,1779.166l25.683,14.47
		c-7.958,15.555-17.364,31.835-28.577,48.475v193.902h-27.856v-158.449l-22.428,21.343c-5.788-9.767-11.576-17.001-17.364-22.068
		C-950.179,1852.602-926.302,1819.683-909.298,1779.166z M-671.264,2395.198h-32.196v-15.919h-212.351v15.919h-31.835v-141.809
		c0-7.237,3.254-10.855,10.852-10.855h254.317c7.597,0,11.213,3.618,11.213,10.855V2395.198z M-673.07,2200.211
		c-10.855,11.213-28.58,20.256-59.33,20.256c-17.725,0-38.347-2.891-62.221-8.679l2.17-35.092
		c23.513,7.237,43.05,10.852,58.605,10.852c38.344,0,45.217-17.725,45.217-70.179c0-6.152-0.361-9.767-1.085-11.216l-3.255-1.084
		H-813.07c-2.534,11.576-6.513,22.789-11.94,34.004l-8.322,15.555c-23.513,37.262-67.285,63.669-130.954,78.864l-11.94-32.196
		c47.03-10.855,115.042-27.495,130.597-96.228h-116.487v-30.75h295.555c8.682,1.446,11.216,1.81,11.216,18.449
		C-655.345,2169.461-660.409,2187.547-673.07,2200.211z M-643.769,1824.386h-23.152v174.368c0,10.852-5.064,35.09-38.347,35.09
		c-11.576,0-26.407-2.534-44.132-7.598l0.721-30.386c17.364,5.064,30.026,7.597,38.708,7.597c9.406,0,13.75-2.534,13.75-12.301
		v-166.771h-43.775v-28.216h96.228V1824.386z"/>
	<path fill="#F29518" d="M-1301.405,2256.283v34.365h52.818v-38.708h-48.474C-1300.68,2251.941-1301.765,2253.75-1301.405,2256.283z
		"/>
	<path fill="#F29518" d="M-1294.168,2178.144l1.085,1.446h113.593l1.446-1.446v-23.153l-1.446-1.085h-113.593
		c-1.085,0-1.449,0.361-1.085,1.085V2178.144z"/>
	<rect x="-1301.405" y="2318.504" fill="#F29518" width="52.818" height="35.453"/>
</g>
<g>
	<path fill="#F29518" d="M-1051.655,2052.977l1.711-1.281v-136.267l-1.711-1.281h-150.787c-1.285,0-1.71,0.426-1.285,1.281v136.267
		l1.285,1.281H-1051.655z M-1196.038,1958.147l14.099-24.351l24.347,14.525c6.409-8.116,11.533-17.942,15.376-28.194l25.632,1.71
		l-2.991,6.835h43.999l21.359,13.24c-11.107,24.351-22.64,43.573-35.454,56.387l31.607,26.483l-19.649,22.214l-34.599-29.475
		c-18.368,11.959-39.727,22.211-62.367,29.901l-14.95-26.483c15.806-3.417,35.454-9.826,57.239-19.649l-23.921-17.942
		c-7.69,6.835-17.087,13.669-27.764,19.649l-14.099-22.211l20.078-11.962L-1196.038,1958.147z"/>
	<path fill="#F29518" d="M-648.883,2101.245h-240.071c-3.847,0-5.554,1.71-5.554,5.553v83.297h250.748v-83.297
		C-643.759,2102.955-645.044,2101.245-648.883,2101.245z"/>
	<path fill="#F29518" d="M-992.302,1413.639c-351.209,0-635.921,284.712-635.921,635.921s284.712,635.921,635.921,635.921
		s635.92-284.711,635.92-635.921S-641.093,1413.639-992.302,1413.639z M-1236.616,1888.945c0-2.991,1.281-4.273,4.269-4.273h71.764
		l17.516-32.037l29.045,15.376l-8.116,16.661h100.813c2.988,0,4.269,1.281,4.269,4.273v189.233c0,2.991-1.281,4.698-4.269,4.698
		h-211.022c-2.988,0-4.269-1.707-4.269-4.698V1888.945z M-1086.254,2173.438l-32.466,7.686
		c-6.405-32.892-12.814-58.094-20.93-76.888l32.037-9.826C-1099.072,2115.769-1091.382,2142.252-1086.254,2173.438z
		 M-1368.61,2227.259l-29.049-5.553c11.962-51.26,18.797-92.693,20.078-124.304l29.475,3.843
		C-1349.387,2136.699-1356.222,2178.562-1368.61,2227.259z M-1303.681,2246.482h-33.318v-181.117l-52.115,6.405
		c-1.281-9.397-3.847-19.649-8.116-32.037l26.483-3.843c10.252-11.533,20.93-25.632,32.037-42.289
		c-18.368-17.516-37.59-31.611-56.813-42.289l15.38-28.623l11.104,5.983c11.537-22.64,21.785-47.842,31.611-75.181l29.901,14.095
		c-7.26,20.078-19.649,46.136-36.735,79.028l22.64,18.793c11.963-21.785,20.504-43.999,26.057-65.355l32.037,8.967
		c-7.26,32.466-29.901,73.048-67.065,121.742l42.718-6.405l-5.983-24.776l29.049-5.979c6.835,21.359,11.959,47.413,14.525,78.598
		l-29.904,4.698l-2.562-18.797l-20.93,2.991V2246.482z M-1293.429,2099.538l28.62-3.847c6.405,29.049,11.533,59.805,14.095,90.561
		l-29.475,2.136C-1282.752,2159.339-1287.024,2129.438-1293.429,2099.538z M-1228.5,2231.532
		c-10.252-7.69-20.078-13.244-28.62-15.806c16.657-29.9,25.202-64.929,26.054-104.23l34.603,4.272
		C-1200.736,2162.33-1211.843,2201.202-1228.5,2231.532z M-1058.064,2229.821c-8.116,8.545-16.231,13.244-23.921,13.244h-71.763
		c-14.95-0.855-32.888-15.38-32.888-33.322v-112.767h32.888v94.4c0,10.681,8.119,17.942,18.368,18.797h39.301
		c6.835,0,9.397-2.992,12.388-8.545l5.979-29.901l31.182,9.826C-1050.8,2211.028-1054.647,2227.259-1058.064,2229.821z
		 M-1032.007,2222.561c-10.252-46.561-21.785-83.297-33.744-109.783l32.888-11.104c14.099,29.475,25.206,66.636,34.603,111.49
		L-1032.007,2222.561z M-605.747,2245.201h-38.012v-18.797h-250.748v18.797h-37.59v-167.448c0-8.545,3.843-12.818,12.814-12.818
		h300.301c8.971,0,13.236,4.273,13.236,12.818V2245.201z M-607.875,2014.96c-12.818,13.24-33.747,23.917-70.057,23.917
		c-20.93,0-45.28-3.414-73.474-10.248l2.562-41.437c27.768,8.545,50.834,12.814,69.202,12.814c45.28,0,53.392-20.93,53.392-82.867
		c0-7.264-0.426-11.533-1.277-13.244l-3.847-1.281h-141.817c-2.992,13.669-7.69,26.909-14.099,40.152l-9.826,18.368
		c-27.764,43.999-79.45,75.181-154.631,93.123l-14.099-38.016c55.532-12.818,135.841-32.466,154.209-113.627h-137.548v-36.309
		h348.995c10.248,1.707,13.243,2.136,13.243,21.785C-586.946,1978.651-592.929,2000.006-607.875,2014.96z"/>
	<path fill="#F29518" d="M-1092.663,1963.697c0.426-1.281,0.426-2.562,0.426-3.843c0-2.136-0.852-2.992-2.136-2.992h-38.871
		l-3.843,5.554l29.045,20.504L-1092.663,1963.697z"/>
</g>
<g>
	<path fill="#BF1A20" d="M705.634,57.124c-352.245,0-637.795,285.551-637.795,637.795s285.551,637.795,637.795,637.795
		s637.795-285.551,637.795-637.795S1057.879,57.124,705.634,57.124z M721.295,647.102c18.148-23.025,81.2-164.758,85.697-224.92
		l0.48-1.289c74.445-60.343,107.881-124.243,107.881-124.243C823.56,535.624,721.295,647.102,721.295,647.102z M732.74,801.443
		c0,6.771-7.806,15.254-17.434,15.254c-9.629,0-17.434-8.483-17.434-15.254s17.434-33.221,17.434-33.221
		S732.74,794.673,732.74,801.443z M669.533,357.651c27.098-41.978,46.294-59.176,67.245-70.603c0,0,56.97,0.687,67.245,75.76
		C755.005,371.139,724.926,368.224,669.533,357.651z M671.221,363.141c-0.014,0.022-0.028,0.04-0.042,0.062
		c-0.028-0.028-0.056-0.053-0.084-0.08C671.138,363.13,671.179,363.135,671.221,363.141z M810.639,369.081
		c0,0,13.513,3.467,35.258-4.616c0,0-25.481,26.867-46.516,43.917c-31.317-2.39-58.098-10.037-97.114-22.898
		c-8.396-2.585-18.92-10.66-29.886-21.146C726.503,374.56,762.29,377.3,810.639,369.081z M903.846,289.884
		c0,0-19.172,32.509-48.075,64.446l-1.817,0.603c-21.745,8.083-37.579,6.725-37.579,6.725
		c19.881-44.029,11.887-85.721,10.891-90.416C868.197,262.627,903.846,289.884,903.846,289.884z M820.8,271.92
		c0,0,10.318,44.145-10.788,90.887c0,0-4.971-69.155-65.245-80.463c22.721-12.392,38.111-12.465,38.111-12.465
		C799.151,268.265,805.522,268.101,820.8,271.92z M772.122,266.627c-13.535,1.777-61.513,13.239-109.304,87.038l-0.268,0.195
		c-30.823-29.911-64.648-78.071-64.648-78.071C660.177,257.196,718.909,258.318,772.122,266.627z M592.423,279.885
		c37.336,57.544,91.196,101.372,91.196,101.372c-39.016-12.861-76.076-28.175-109.079-42.385
		C564.722,301.463,592.423,279.885,592.423,279.885z M585.92,279.885c-11.427,9.857-23.997,29.101-16.46,57.82l-68.499-32.518
		C533.321,283.523,551.13,278.893,585.92,279.885z M796.691,420.893c-3.752,60.114-68.846,211.14-86.177,231.394
		c0,0-140.526-104.135-214.598-337.221C495.915,315.066,688.715,412.653,796.691,420.893z M415.281,1036.584h-22.273v-51.521
		h-40.206v51.521h-22.273V918.24h22.273v47.538h40.206V918.24h22.273V1036.584z M522.344,1036.584h-18.923l-0.546-12.044
		c-1.931,2.056-3.953,3.939-6.068,5.662c-2.109,1.719-4.436,3.21-6.971,4.48c-2.534,1.27-5.295,2.25-8.283,2.944
		c-2.988,0.69-6.266,1.038-9.823,1.038c-4.711,0-8.843-0.69-12.406-2.08c-3.562-1.39-6.551-3.321-8.964-5.793
		c-2.414-2.476-4.243-5.464-5.479-8.964c-1.236-3.505-1.854-7.367-1.854-11.59c0-4.349,0.917-8.361,2.761-12.044
		c1.839-3.683,4.644-6.85,8.419-9.509c3.77-2.655,8.482-4.736,14.125-6.246c5.643-1.506,12.271-2.264,19.874-2.264h12.044v-5.522
		c0-2.356-0.333-4.484-0.994-6.382c-0.666-1.902-1.738-3.519-3.215-4.846c-1.482-1.328-3.394-2.356-5.749-3.08
		c-2.356-0.724-5.252-1.086-8.694-1.086c-5.431,0-10.789,0.623-16.07,1.859c-5.286,1.236-10.398,2.974-15.351,5.204v-17.653
		c4.407-1.752,9.495-3.2,15.259-4.349c5.764-1.144,11.754-1.719,17.972-1.719c6.821,0,12.676,0.647,17.566,1.945
		c4.89,1.299,8.921,3.244,12.087,5.841c3.171,2.597,5.508,5.841,7.019,9.732c1.511,3.896,2.264,8.438,2.264,13.627V1036.584z
		 M625.204,1033.051c-4.349,1.752-8.844,3.051-13.492,3.896c-4.649,0.845-9.51,1.27-14.578,1.27c-7.304,0-13.854-0.999-19.647-2.988
		c-5.797-1.994-10.716-4.953-14.762-8.877c-4.045-3.92-7.139-8.781-9.278-14.578c-2.143-5.793-3.215-12.493-3.215-20.1
		c0-7.362,1.158-14.033,3.485-20.009c2.322-5.976,5.6-11.078,9.823-15.302c4.224-4.224,9.312-7.482,15.259-9.78
		c5.942-2.293,12.57-3.442,19.874-3.442c5.976,0,11.001,0.319,15.075,0.951c4.074,0.637,7.743,1.439,11.001,2.399v21.462
		c-3.741-1.873-7.801-3.321-12.179-4.344c-4.378-1.028-8.525-1.54-12.45-1.54c-4.103,0-7.786,0.695-11.045,2.081
		c-3.263,1.39-6.01,3.321-8.24,5.797c-2.235,2.472-3.939,5.474-5.117,9.008c-1.178,3.529-1.767,7.41-1.767,11.633
		c0,4.407,0.633,8.361,1.902,11.86c1.269,3.505,3.065,6.478,5.387,8.921c2.322,2.447,5.117,4.315,8.375,5.614
		c3.258,1.298,6.884,1.945,10.866,1.945c1.931,0,3.968-0.135,6.111-0.406c2.143-0.27,4.287-0.666,6.43-1.178
		c2.143-0.512,4.258-1.101,6.338-1.767c2.081-0.661,4.031-1.386,5.841-2.172V1033.051z M709.071,1036.584l-33.964-45.999v45.999
		h-22.094V908.644h22.094v74.88l32.149-38.932h27.612l-37.305,41.92l40.394,50.073H709.071z M851.124,1036.584h-27.168
		l-31.686-70.627l-6.526-15.211v49.078v36.759H765.47V918.24h27.341l32.323,71.081l5.706,13.854V950.93v-32.69h20.284V1036.584z
		 M966.656,936.801h-32.41v99.784h-22.823v-99.784h-32.41V918.24h87.643V936.801z M1080.74,993.033
		c0,7.545-1.004,14.168-3.031,19.874c-2.018,5.706-4.914,10.456-8.689,14.26c-3.775,3.804-8.38,6.671-13.806,8.602
		c-5.436,1.931-11.537,2.896-18.295,2.896c-7.608,0-14.125-0.965-19.56-2.896c-5.426-1.931-9.838-4.707-13.217-8.327
		c-3.379-3.625-5.822-8.028-7.337-13.222c-1.506-5.189-2.259-11.016-2.259-17.475V918.24h22.273v77.144
		c0,3.987,0.348,7.516,1.043,10.596c0.695,3.08,1.902,5.691,3.62,7.835c1.719,2.143,3.881,3.756,6.478,4.842
		c2.587,1.086,5.85,1.632,9.78,1.632c3.678,0,6.787-0.468,9.326-1.405c2.529-0.937,4.644-2.447,6.333-4.528
		c1.689-2.081,2.954-4.755,3.804-8.013c0.84-3.258,1.265-7.212,1.265-11.861V918.24h22.273V993.033z"/>
	<path fill="#BF1A20" d="M477.253,997.016c-2.597,0.724-4.711,1.719-6.338,2.988c-1.632,1.27-2.824,2.732-3.577,4.393
		c-0.758,1.66-1.134,3.427-1.134,5.295c0,3.746,1.207,6.594,3.625,8.559c2.413,1.96,5.701,2.94,9.867,2.94
		c3.08,0,6.28-1.115,9.601-3.35c3.316-2.23,6.971-5.431,10.953-9.596V995.93h-13.492
		C483.016,995.93,479.845,996.292,477.253,997.016z"/>
</g>
</svg>
