<?xml version="1.0" encoding="utf-8"?>
<!-- Generator: Adobe Illustrator 17.0.0, SVG Export Plug-In . SVG Version: 6.00 Build 0)  -->
<!DOCTYPE svg PUBLIC "-//W3C//DTD SVG 1.1//EN" "http://www.w3.org/Graphics/SVG/1.1/DTD/svg11.dtd">
<svg version="1.1" id="圖層_1" xmlns="http://www.w3.org/2000/svg" xmlns:xlink="http://www.w3.org/1999/xlink" x="0px" y="0px"
	 width="1417.32px" height="1417.32px" viewBox="0 0 1417.32 1417.32" enable-background="new 0 0 1417.32 1417.32"
	 xml:space="preserve">
<path fill="#F29518" d="M-992.303,1411.3c-352.245,0-637.795,285.55-637.795,637.795s285.55,637.795,637.795,637.795
	s637.795-285.551,637.795-637.795S-640.058,1411.3-992.303,1411.3z M-999.94,2329.266h-123.004v-270.121h-34.561v270.121h-123.004
	v-562.763h123.004v223.503h34.561v-223.503h123.004V2329.266z M-704.096,1964.268H-815.84v-112.459
	c0-4.842-1.414-8.352-4.208-10.513c-2.811-2.161-7.296-3.233-13.47-3.233c-6.159,0-10.789,1.072-13.877,3.217
	c-3.087,2.161-4.615,5.655-4.615,10.497v392.215c0,4.322,1.82,7.685,5.46,10.091c3.64,2.421,7.994,3.64,13.032,3.64
	c6.174,0,10.659-1.219,13.47-3.64c2.795-2.421,4.208-5.785,4.208-10.107v-139.822h111.744v143.104
	c0,21.985-10.725,41.548-32.156,58.691c-24.65,19.84-56.546,29.752-95.674,29.752c-41.792,0-75.557-8.303-101.295-24.926
	c-27.867-18.215-41.792-43.677-41.792-76.37v-362.577c0-35.91,10.172-62.444,30.548-79.603
	c23.577-19.807,61.096-29.736,112.54-29.736c44.489,0,77.718,9.928,99.703,29.736c18.751,17.159,28.127,40.476,28.127,69.951
	V1964.268z"/>
<g>
	<path fill="#F29518" d="M-842.805,1842.45c-6.987-2.925-16.622-4.387-28.907-4.387v151.131c12.837,0,21.221-0.78,25.137-2.389
		c9.506-4.257,14.251-13.324,14.251-27.184v-91.985C-832.324,1853.791-835.818,1845.391-842.805,1842.45z"/>
	<path fill="#F29518" d="M-992.302,1411.3c-352.245,0-637.796,285.55-637.796,637.795c0,352.244,285.551,637.795,637.796,637.795
		c352.244,0,637.795-285.551,637.795-637.795C-354.507,1696.85-640.058,1411.3-992.302,1411.3z M-1022.859,1964.267h-111.743
		v-112.458c0-4.843-1.414-8.352-4.209-10.513c-2.811-2.161-7.296-3.234-13.47-3.234c-6.158,0-10.789,1.073-13.876,3.218
		c-3.087,2.161-4.615,5.655-4.615,10.497v392.215c0,4.322,1.82,7.685,5.459,10.091c3.64,2.421,7.995,3.64,13.032,3.64
		c6.175,0,10.66-1.219,13.47-3.64c2.795-2.421,4.209-5.785,4.209-10.107v-139.821h111.743v143.104
		c0,21.985-10.724,41.548-32.156,58.691c-24.65,19.84-56.546,29.751-95.673,29.751c-41.792,0-75.558-8.303-101.295-24.926
		c-27.867-18.215-41.792-43.677-41.792-76.37v-362.577c0-35.91,10.172-62.444,30.548-79.603
		c23.577-19.807,61.095-29.735,112.54-29.735c44.489,0,77.718,9.928,99.703,29.735c18.752,17.159,28.127,40.476,28.127,69.951
		V1964.267z M-813.833,2329.266c-6.971-8.043-11.797-19.954-14.477-35.78c-2.681-15.794-4.013-38.185-4.013-67.124v-138.278
		c0-13.925-3.494-22.375-10.481-25.332c-6.987-2.925-16.622-4.42-28.907-4.42v270.934h-123.003v-562.763h152.739
		c40.72,0,72.486,9.067,95.267,27.217c22.781,18.134,34.171,42.133,34.171,71.982v67.206c0,18.67-2.925,33.083-8.774,43.205
		c-10.66,18.67-33.018,33.603-67.092,44.798c31.409,8.06,52.972,20.669,64.687,37.844c7.442,11.277,11.179,26.843,11.179,46.699
		v121.558c1.073,19.873,2.128,34.903,3.217,45.107c3.737,31.652,9.912,50.712,18.491,57.147H-813.833z"/>
</g>
<g>
	<path fill="#F29518" d="M1205.55,736.495c0-4.953-1.066-8.657-3.198-11.123c-2.121-2.465-5.319-3.704-9.583-3.704
		c-3.553,0-6.579,1.238-9.055,3.704c-2.487,2.466-3.736,6.17-3.736,11.123v68.813h25.572V736.495z"/>
	<path fill="#F29518" d="M437.909,721.669c-3.553,0-6.568,1.238-9.055,3.714c-2.487,2.487-3.725,6.202-3.725,11.166v184.4
		c0,4.964,1.066,8.765,3.198,11.424c2.132,2.66,5.33,3.984,9.582,3.984c4.264,0,7.462-1.324,9.594-3.984
		c2.132-2.659,3.198-6.46,3.198-11.424v-184.4c0-4.964-1.066-8.679-3.198-11.166C445.37,722.907,442.173,721.669,437.909,721.669z"
		/>
	<path fill="#F29518" d="M638.384,596.866c2.654,0,4.843-0.861,6.572-2.59c1.721-1.721,2.582-4.304,2.582-7.763v-58.104
		c-7.433,1.858-12.477,4.118-15.123,6.765c-2.654,2.655-3.982,6.106-3.982,10.345v40.994c0,3.459,0.861,6.041,2.59,7.763
		C632.745,596.005,635.198,596.866,638.384,596.866z"/>
	<path fill="#F29518" d="M716.792,82.468c-352.245,0-637.795,285.551-637.795,637.795c0,352.245,285.55,637.796,637.795,637.796
		s637.795-285.551,637.795-637.796C1354.587,368.019,1069.036,82.468,716.792,82.468z M573.112,551.094
		c0-18.043,12.404-33.038,37.213-44.976c24.809-11.938,37.213-20.296,37.213-25.074v-33.432c0-3.717-0.78-6.5-2.333-8.358
		c-1.561-1.85-3.902-2.784-7.015-2.784c-2.607,0-4.819,0.933-6.637,2.784c-1.81,1.858-2.719,4.641-2.719,8.358v44.573h-53.736
		v-44.967c0-16.716,6.773-28.92,20.304-36.618c10.876-6.105,26.128-9.154,45.772-9.154c19.628,0,34.358,3.322,44.179,9.95
		c11.672,7.698,17.513,20.296,17.513,37.808v179.501h-48.958v-8.752c-2.654,5.036-6.709,8.293-12.139,9.75
		c-5.446,1.456-13.201,2.188-23.288,2.188c-16.451,0-28.123-2.928-35.025-8.761c-6.902-5.832-10.345-14.721-10.345-26.667V551.094z
		 M421.477,350.099h60.895v110.649h17.111V350.099h60.895v278.607h-60.895V494.976h-17.111v133.729h-60.895V350.099z
		 M333.499,737.109h-74.046v-74.52c0-3.209-0.937-5.535-2.789-6.966c-1.863-1.432-4.834-2.143-8.926-2.143
		c-4.081,0-7.149,0.711-9.195,2.132c-2.045,1.432-3.058,3.747-3.058,6.956v259.9c0,2.864,1.206,5.093,3.618,6.687
		c2.412,1.604,5.297,2.412,8.635,2.412c4.092,0,7.064-0.808,8.926-2.412c1.852-1.604,2.789-3.833,2.789-6.697v-92.653h74.046v94.827
		c0,14.568-7.107,27.532-21.308,38.891c-16.334,13.147-37.47,19.715-63.398,19.715c-27.693,0-50.068-5.502-67.123-16.517
		c-18.466-12.07-27.693-28.942-27.693-50.606V675.854c0-23.796,6.74-41.379,20.243-52.749
		c15.623-13.125,40.485-19.704,74.574-19.704c29.481,0,51.5,6.579,66.068,19.704c12.426,11.37,18.638,26.821,18.638,46.353V737.109z
		 M524.747,921.972c0,22.73-8.527,39.075-25.572,49.013c-13.847,8.161-33.917,12.253-60.2,12.253
		c-26.638,0-47.236-4.436-61.793-13.319c-17.411-10.66-26.1-27.521-26.1-50.606V738.714c0-22.73,8.689-39.419,26.1-50.079
		c14.913-9.227,35.511-13.847,61.793-13.847c24.151,0,44.49,5.244,60.997,15.71c16.517,10.487,24.775,25.669,24.775,45.556V921.972z
		 M711.731,978.974h-74.057v-10.25c-3.909,3.951-9.852,7.354-17.842,10.218c-7.989,2.853-17.314,4.296-27.973,4.296
		c-15.634,0-28.501-4.092-38.622-12.253c-10.121-8.172-15.182-18.11-15.182-29.836V676.92h74.046v245.074
		c0,9.227,4.264,13.825,12.791,13.825c4.264,0,7.462-1.141,9.583-3.446c2.132-2.304,3.198-5.577,3.198-9.841V676.92h74.057V978.974z
		 M715.995,584.131V449.204c0-16.981,6.5-29.45,19.499-37.414c11.15-6.894,26.531-10.345,46.174-10.345
		c19.106,0,33.963,3.049,44.574,9.154c12.999,7.425,19.507,19.636,19.507,36.618v55.715h-55.329v-55.321
		c0-3.717-0.796-6.5-2.389-8.358c-1.585-1.85-3.974-2.784-7.16-2.784c-2.654,0-4.915,0.925-6.765,2.775
		c-1.859,1.858-2.791,4.633-2.791,8.342v137.767c0,3.708,0.796,6.548,2.389,8.535c1.593,1.987,3.982,2.976,7.167,2.976
		s5.575-0.989,7.16-2.968c1.593-1.979,2.389-4.811,2.389-8.503v-54.203h55.329v54.927c0,16.981-6.371,29.193-19.106,36.617
		c-10.353,6.097-25.347,9.155-44.976,9.155c-19.901,0-35.29-3.314-46.174-9.951C722.495,613.976,715.995,601.379,715.995,584.131z
		 M902.441,802.111h-74.057V736.14c0-9.292-4.264-13.944-12.78-13.944c-4.264,0-7.462,1.077-9.594,3.209
		c-2.132,2.132-3.198,5.513-3.198,10.132v243.437h-74.046V676.92h74.046v9.981c4.264-3.51,10.39-6.406,18.38-8.689
		c7.989-2.283,17.131-3.424,27.435-3.424c15.623,0,28.501,4.178,38.622,12.512c10.121,8.355,15.193,18.563,15.193,30.633V802.111z
		 M913.001,628.705H857.68V350.099h55.321v125.37l28.662-72.431h56.914l-39.803,98.953l53.334,126.714h-64.878l-34.228-81.594
		V628.705z M1091.029,919.313c0,22.729-8.711,39.419-26.11,50.068c-14.913,9.249-35.521,13.858-61.794,13.858
		c-25.572,0-45.47-4.092-59.672-12.253c-17.4-9.938-26.1-26.283-26.1-49.013v-64.464H991.4v63.495c0,4.953,1.088,8.732,3.263,11.381
		c2.186,2.649,5.276,3.973,9.27,3.973c3.984,0,6.977-1.324,8.98-3.973c2.003-2.649,2.993-6.428,2.993-11.37v-23.279
		c0-20.458-4.974-33.691-14.912-39.688c-13.502-7.106-26.1-13.858-37.826-20.243c-17.4-9.593-29.125-18.197-35.155-25.841
		c-6.051-7.634-9.055-18.552-9.055-32.765v-40.485c0-22.73,8.334-39.419,25.034-50.079c14.557-9.227,34.972-13.847,61.266-13.847
		c25.572,0,45.276,4.081,59.134,12.253c16.689,9.938,25.034,26.283,25.034,49.013v59.661h-72.981v-59.134
		c0-4.608-1.195-8.259-3.575-10.918c-2.379-2.67-5.103-3.994-8.151-3.994c-3.413,0-6.299,1.249-8.679,3.725
		c-2.379,2.487-3.574,6.213-3.574,11.187v28.232c0,12.436,5.146,22.03,15.451,28.77l28.77,15.451
		c20.953,11.015,33.906,19.004,38.891,23.968c10.294,9.949,15.451,23.624,15.451,41.023V919.313z M1183.175,932.384
		c2.132,2.649,5.33,3.973,9.593,3.973c4.264,0,7.462-1.313,9.583-3.962c2.132-2.649,3.198-6.439,3.198-11.381v-60.307h74.057v61.266
		c0,22.375-8.883,38.719-26.638,49.013c-14.213,8.161-34.455,12.253-60.738,12.253s-46.526-4.436-60.727-13.319
		c-17.045-10.66-25.572-27.521-25.572-50.606V738.714c0-22.73,8.345-39.419,25.045-50.079c14.557-9.227,34.972-13.847,61.255-13.847
		c25.928,0,46.17,4.081,60.738,12.253c17.755,9.938,26.638,26.283,26.638,49.013v115.069h-99.629v69.88
		C1179.978,925.956,1181.043,929.735,1183.175,932.384z"/>
</g>
</svg>
