<?xml version="1.0" encoding="utf-8"?>
<!-- Generator: Adobe Illustrator 17.0.0, SVG Export Plug-In . SVG Version: 6.00 Build 0)  -->
<!DOCTYPE svg PUBLIC "-//W3C//DTD SVG 1.1//EN" "http://www.w3.org/Graphics/SVG/1.1/DTD/svg11.dtd">
<svg version="1.1" id="圖層_1" xmlns="http://www.w3.org/2000/svg" xmlns:xlink="http://www.w3.org/1999/xlink" x="0px" y="0px"
	 width="1417.32px" height="1417.32px" viewBox="0 0 1417.32 1417.32" enable-background="new 0 0 1417.32 1417.32"
	 xml:space="preserve">
<path fill="#F29518" d="M704.255,65.754c-352.245,0-637.795,285.55-637.795,637.795s285.55,637.795,637.795,637.795
	s637.795-285.55,637.795-637.795S1056.5,65.754,704.255,65.754z M696.618,983.72H573.614V713.598h-34.561V983.72H416.049V420.956
	h123.004v223.503h34.561V420.956h123.004V983.72z M992.462,618.722H880.718V506.263c0-4.842-1.414-8.352-4.208-10.513
	c-2.811-2.161-7.296-3.233-13.47-3.233c-6.159,0-10.789,1.072-13.877,3.217c-3.087,2.161-4.615,5.655-4.615,10.497v392.215
	c0,4.322,1.82,7.685,5.46,10.091c3.64,2.421,7.994,3.64,13.032,3.64c6.174,0,10.659-1.219,13.47-3.64
	c2.795-2.421,4.208-5.785,4.208-10.107V758.608h111.744v143.104c0,21.985-10.725,41.548-32.156,58.691
	c-24.65,19.84-56.546,29.752-95.674,29.752c-41.792,0-75.557-8.303-101.295-24.926c-27.867-18.215-41.792-43.677-41.792-76.37
	V526.281c0-35.91,10.172-62.444,30.548-79.603c23.577-19.808,61.096-29.736,112.54-29.736c44.489,0,77.718,9.928,99.703,29.736
	c18.751,17.159,28.127,40.476,28.127,69.951V618.722z"/>
</svg>
