<?xml version="1.0" encoding="utf-8"?>
<!-- Generator: Adobe Illustrator 17.0.0, SVG Export Plug-In . SVG Version: 6.00 Build 0)  -->
<!DOCTYPE svg PUBLIC "-//W3C//DTD SVG 1.1//EN" "http://www.w3.org/Graphics/SVG/1.1/DTD/svg11.dtd">
<svg version="1.1" id="圖層_1" xmlns="http://www.w3.org/2000/svg" xmlns:xlink="http://www.w3.org/1999/xlink" x="0px" y="0px"
	 width="200px" height="200px" viewBox="0 0 200 200" enable-background="new 0 0 200 200" xml:space="preserve">
<g>
	<path fill="#F29518" d="M51.072,86.314c-0.48,0-0.889,0.166-1.224,0.503c-0.337,0.335-0.505,0.838-0.505,1.509v24.93
		c0,0.669,0.144,1.185,0.433,1.544c0.288,0.36,0.72,0.54,1.296,0.54c0.577,0,1.009-0.179,1.297-0.54
		c0.288-0.358,0.433-0.874,0.433-1.544v-24.93c0-0.671-0.144-1.174-0.433-1.509C52.081,86.48,51.649,86.314,51.072,86.314z"/>
	<path fill="#F29518" d="M76.352,86.314c-1.152,0-1.729,0.622-1.729,1.867v25.504c0,1.247,0.577,1.869,1.729,1.869
		c0.576,0,1.008-0.155,1.296-0.468c0.288-0.309,0.433-0.754,0.433-1.328V88.181c0-0.622-0.144-1.09-0.433-1.401
		S76.928,86.314,76.352,86.314z"/>
	<path fill="#F29518" d="M100.801,5.299c-52.42,0-94.915,42.495-94.915,94.915c0,52.42,42.495,94.915,94.915,94.915
		s94.915-42.495,94.915-94.915C195.715,47.794,153.221,5.299,100.801,5.299z M37.605,121.1H16.719V70.684H27.81v44.005h9.795V121.1z
		 M62.812,113.393c0,3.074-1.152,5.284-3.457,6.626c-1.873,1.105-4.586,1.657-8.139,1.657c-3.601,0-6.387-0.6-8.354-1.8
		c-2.353-1.441-3.529-3.722-3.529-6.844V88.618c0-3.073,1.176-5.329,3.529-6.771c2.016-1.247,4.801-1.873,8.354-1.873
		c3.265,0,6.013,0.71,8.247,2.125c2.232,1.417,3.349,3.469,3.349,6.158V113.393z M88.091,120.524c0,2.833-0.3,4.753-0.9,5.761
		c-0.601,1.01-1.597,1.849-2.989,2.522c-0.817,0.382-1.861,0.635-3.133,0.755c-1.272,0.119-2.821,0.181-4.645,0.181H66.413v-5.979
		h8.139c1.68,0,2.76-0.474,3.241-1.419c0.191-0.379,0.288-1.112,0.288-2.2c-0.625,0.486-1.453,0.863-2.485,1.13
		c-1.033,0.267-2.269,0.401-3.709,0.401c-2.113,0-3.854-0.552-5.222-1.657c-1.369-1.103-2.053-2.449-2.053-4.033V86.674
		c0-1.825,0.528-3.314,1.585-4.466c1.392-1.487,3.529-2.233,6.409-2.233c1.585,0,2.856,0.241,3.817,0.721
		c0.817,0.576,1.393,0.936,1.729,1.081l1.296-1.513h8.642V120.524z M100.334,121.1H90.323V80.264h10.011V121.1z M100.334,78.031
		H90.323v-7.274h10.011V78.031z M125.684,113.032c0,3.074-1.177,5.331-3.529,6.771c-2.016,1.249-4.802,1.873-8.354,1.873
		c-3.457,0-6.146-0.552-8.066-1.657c-2.353-1.342-3.529-3.552-3.529-6.626v-8.715h10.011v8.585c0,0.668,0.146,1.18,0.442,1.538
		c0.294,0.358,0.712,0.538,1.253,0.538c0.539,0,0.944-0.179,1.213-0.538c0.271-0.358,0.405-0.871,0.405-1.536v-3.148
		c0-2.767-0.673-4.556-2.016-5.366c-1.825-0.96-3.529-1.873-5.114-2.738c-2.353-1.295-3.938-2.46-4.753-3.493
		c-0.817-1.032-1.224-2.507-1.224-4.428v-5.474c0-3.073,1.128-5.329,3.385-6.771c1.968-1.247,4.729-1.873,8.282-1.873
		c3.458,0,6.122,0.552,7.994,1.657c2.257,1.344,3.385,3.554,3.385,6.626v8.065h-9.867v-7.994c0-0.624-0.161-1.116-0.483-1.476
		c-0.322-0.36-0.689-0.54-1.103-0.54c-0.46,0-0.85,0.168-1.172,0.503c-0.322,0.337-0.483,0.841-0.483,1.513v3.817
		c0,1.683,0.695,2.977,2.089,3.89l3.889,2.089c2.832,1.489,4.585,2.57,5.257,3.241c1.393,1.344,2.089,3.193,2.089,5.545V113.032z
		 M147.434,121.1h-6.338c-4.321,0-6.975-0.587-7.958-1.761c-0.985-1.174-1.476-3.868-1.476-8.086V86.385h-4.465v-6.121h4.465v-8.212
		h10.011v8.212h5.402v6.121h-5.402v24.848c0,1.202,0.408,2.041,1.224,2.52c0.576,0.337,1.464,0.505,2.665,0.505h1.873V121.1z
		 M159.533,121.1h-10.011V80.264h10.011V121.1z M159.533,78.031h-10.011v-7.274h10.011V78.031z M174.44,86.817
		c-0.288-0.335-0.72-0.503-1.296-0.503c-0.481,0-0.89,0.166-1.224,0.503c-0.337,0.335-0.505,0.838-0.505,1.509v24.93
		c0,0.669,0.144,1.185,0.433,1.544c0.288,0.36,0.721,0.54,1.297,0.54s1.008-0.179,1.296-0.538c0.288-0.358,0.433-0.871,0.433-1.54
		v-9.807h10.011v9.938c0,3.074-1.152,5.284-3.457,6.626c-1.873,1.105-4.586,1.657-8.139,1.657c-3.601,0-6.387-0.6-8.354-1.8
		c-2.353-1.441-3.529-3.722-3.529-6.844V88.618c0-3.073,1.176-5.329,3.529-6.771c2.016-1.247,4.801-1.873,8.354-1.873
		c3.458,0,6.146,0.552,8.066,1.657c2.352,1.344,3.529,3.554,3.529,6.626v10.083h-10.011V88.329
		C174.873,87.658,174.728,87.153,174.44,86.817z"/>
</g>
<g>
	<path fill="#F29518" d="M-89.582,13.629c-0.194,0-0.359,0.067-0.495,0.203s-0.204,0.339-0.204,0.609v10.071
		c0,0.271,0.058,0.479,0.175,0.624c0.116,0.146,0.291,0.218,0.523,0.218c0.233,0,0.407-0.072,0.524-0.218
		c0.116-0.146,0.174-0.354,0.174-0.624V14.441c0-0.271-0.058-0.474-0.174-0.609C-89.175,13.696-89.349,13.629-89.582,13.629z"/>
	<path fill="#F29518" d="M-56.444-33.619c-27.99,0-50.681,22.69-50.681,50.681c0,27.99,22.69,50.681,50.681,50.681
		s50.681-22.69,50.681-50.681C-5.764-10.928-28.454-33.619-56.444-33.619z M-95.285,14.473h-4.044v-4.07
		c0-0.176-0.051-0.303-0.152-0.381c-0.102-0.078-0.264-0.117-0.487-0.117s-0.391,0.039-0.502,0.117s-0.167,0.204-0.167,0.38v14.194
		c0,0.156,0.066,0.277,0.198,0.365s0.289,0.131,0.472,0.131c0.223,0,0.385-0.043,0.487-0.131c0.101-0.088,0.152-0.21,0.152-0.366
		v-5.06h4.044v5.179c0,0.796-0.388,1.504-1.164,2.124c-0.893,0.718-2.047,1.076-3.462,1.076c-1.513,0-2.735-0.3-3.666-0.901
		c-1.009-0.659-1.513-1.581-1.513-2.765V11.127c0-1.3,0.368-2.26,1.105-2.881c0.853-0.718,2.211-1.076,4.073-1.076
		c1.61,0,2.812,0.358,3.608,1.076c0.679,0.621,1.018,1.465,1.018,2.531V14.473z M-84.84,24.568c0,1.241-0.466,2.134-1.396,2.677
		c-0.757,0.446-1.853,0.669-3.288,0.669c-1.455,0-2.58-0.242-3.375-0.727c-0.95-0.582-1.425-1.504-1.425-2.765v-9.863
		c0-1.241,0.475-2.153,1.425-2.734c0.815-0.505,1.939-0.757,3.375-0.757c1.319,0,2.43,0.286,3.332,0.858s1.353,1.401,1.353,2.487
		V24.568z M-69.187,27.682h-4.044V14.473c0-0.505-0.232-0.758-0.698-0.758c-0.232,0-0.407,0.059-0.523,0.175
		c-0.117,0.117-0.175,0.302-0.175,0.554v13.237h-4.044V14.444c0-0.505-0.233-0.758-0.698-0.758c-0.233,0-0.408,0.059-0.524,0.176
		c-0.116,0.116-0.174,0.301-0.174,0.554v13.266h-4.044V11.184h4.044v0.574c0.232-0.191,0.577-0.354,1.033-0.489
		c0.456-0.134,0.945-0.201,1.469-0.201c0.756,0,1.29,0.096,1.6,0.288c0.368,0.326,0.688,0.604,0.96,0.834
		c0.174-0.211,0.557-0.45,1.149-0.719s1.179-0.403,1.76-0.403c0.834,0,1.528,0.237,2.081,0.713s0.829,1.033,0.829,1.673V27.682z
		 M-53.301,27.682h-4.044V14.473c0-0.505-0.232-0.758-0.698-0.758c-0.232,0-0.407,0.059-0.523,0.175
		c-0.117,0.117-0.175,0.302-0.175,0.554v13.237h-4.044V14.444c0-0.505-0.233-0.758-0.698-0.758c-0.233,0-0.408,0.059-0.524,0.176
		c-0.116,0.116-0.174,0.301-0.174,0.554v13.266h-4.044V11.184h4.044v0.574c0.232-0.191,0.577-0.354,1.033-0.489
		c0.456-0.134,0.945-0.201,1.469-0.201c0.756,0,1.29,0.096,1.6,0.288c0.368,0.326,0.688,0.604,0.96,0.834
		c0.174-0.211,0.557-0.45,1.149-0.719s1.179-0.403,1.76-0.403c0.834,0,1.528,0.237,2.081,0.713s0.829,1.033,0.829,1.673V27.682z
		 M-42.857,27.682h-4.044v-0.56c-0.214,0.216-0.539,0.401-0.975,0.558c-0.437,0.156-0.946,0.234-1.528,0.234
		c-0.854,0-1.557-0.223-2.109-0.669s-0.829-0.989-0.829-1.629V11.184h4.044V24.57c0,0.503,0.232,0.755,0.698,0.755
		c0.232,0,0.407-0.063,0.523-0.188c0.117-0.126,0.175-0.305,0.175-0.538V11.184h4.044V27.682z M-32.47,27.682h-4.044V14.416
		c0-0.506-0.232-0.758-0.698-0.758c-0.232,0-0.407,0.061-0.523,0.182c-0.117,0.121-0.175,0.312-0.175,0.574v13.268h-4.044V11.184
		h4.044v0.553c0.233-0.193,0.567-0.354,1.004-0.479s0.936-0.189,1.499-0.189c0.853,0,1.556,0.229,2.109,0.684
		c0.553,0.456,0.829,1.014,0.829,1.673V27.682z M-27.553,27.682h-4.044V11.184h4.044V27.682z M-27.553,10.283h-4.044V7.344h4.044
		V10.283z M-18.825,27.682h-2.561c-1.746,0-2.817-0.237-3.215-0.712c-0.398-0.474-0.597-1.562-0.597-3.266V13.658h-1.804v-2.474
		h1.804V7.868h4.044v3.316h2.182v2.474h-2.182v10.037c0,0.485,0.165,0.825,0.495,1.019c0.232,0.136,0.591,0.204,1.077,0.204h0.756
		V27.682z M-11.009,29.736c-0.214,0.47-0.662,0.87-1.342,1.202c-0.214,0.098-0.448,0.161-0.701,0.191
		c-0.253,0.028-0.623,0.043-1.109,0.043h-2.744v-2.24h1.402c0.35,0,0.599-0.097,0.745-0.29c0.146-0.194,0.219-0.455,0.219-0.784
		c0-0.194-0.029-0.378-0.087-0.553l-3.763-16.121h4.044l1.702,8.715l1.324-8.715h3.986l-3.151,16.383
		C-10.717,28.74-10.892,29.463-11.009,29.736z"/>
</g>
</svg>
