<?xml version="1.0" encoding="utf-8"?>
<!-- Generator: Adobe Illustrator 17.0.0, SVG Export Plug-In . SVG Version: 6.00 Build 0)  -->
<!DOCTYPE svg PUBLIC "-//W3C//DTD SVG 1.1//EN" "http://www.w3.org/Graphics/SVG/1.1/DTD/svg11.dtd">
<svg version="1.1" id="圖層_1" xmlns="http://www.w3.org/2000/svg" xmlns:xlink="http://www.w3.org/1999/xlink" x="0px" y="0px"
	 width="1417.32px" height="1417.32px" viewBox="0 0 1417.32 1417.32" enable-background="new 0 0 1417.32 1417.32"
	 xml:space="preserve">
<g>
	<path fill="#F29518" d="M407.978,909.713v34.365h52.82V905.37h-48.474C408.706,905.37,407.618,907.179,407.978,909.713z"/>
	<rect x="407.978" y="971.933" fill="#F29518" width="52.82" height="35.453"/>
	<path fill="#F29518" d="M1001.587,926.713H798.276c-3.258,0-4.7,1.449-4.7,4.703v70.542h212.351v-70.542
		C1005.927,928.162,1004.839,926.713,1001.587,926.713z"/>
	<path fill="#F29518" d="M529.896,833.018l1.442-1.445v-23.152l-1.442-1.085H416.303c-1.088,0-1.449,0.36-1.088,1.085v23.152
		l1.088,1.445H529.896z"/>
	<rect x="490.1" y="971.933" fill="#F29518" width="49.563" height="35.453"/>
	<path fill="#F29518" d="M535.684,905.37H490.1v38.708h49.563v-34.729C539.663,906.819,538.214,905.37,535.684,905.37z"/>
	<path fill="#F29518" d="M1024.74,493.336H911.868c-1.449,0-2.169,0.724-2.169,2.173v30.75h117.572v-30.75
		C1027.271,494.06,1026.543,493.336,1024.74,493.336z"/>
	<rect x="909.699" y="555.56" fill="#F29518" width="117.572" height="31.471"/>
	<path fill="#F29518" d="M716.72,70.307c-351.21,0-635.921,284.712-635.921,635.921s284.711,635.921,635.921,635.921
		c351.209,0,635.92-284.712,635.92-635.921S1067.929,70.307,716.72,70.307z M498.779,377.213h191.009v30.75H498.779V377.213z
		 M432.579,360.934l28.941,10.852c-18.446,44.86-40.878,78.864-65.478,100.571l-26.043-18.089
		C398.211,428.946,419.194,397.471,432.579,360.934z M446.326,452.098l27.859,12.661c-9.406,18.81-18.452,35.09-27.131,49.199
		v180.878h-30.75V553.751l-23.88,22.428l-24.962-19.534C402.19,527.344,428.961,492.251,446.326,452.098z M568.964,1051.522h-29.301
		v-15.919H407.978v15.919h-29.301V882.217c-0.361-2.894,1.088-4.703,4.706-4.703h179.432c4.34,0,6.149,2.17,6.149,6.152V1051.522z
		 M385.914,855.447v-70.903c0-2.534,1.082-3.979,3.619-3.979H556.3c2.897,0,4.339,1.445,4.339,3.979v70.903
		c0,2.534-1.442,3.982-4.339,3.982H389.532C386.996,859.429,385.914,857.98,385.914,855.447z M571.134,758.497H378.677v-27.856
		h192.457V758.497z M692.685,1012.811c0,13.025-6.149,36.538-39.796,36.538c-12.298,0-28.213-2.53-47.748-7.597l0.721-32.195
		c17.364,5.788,31.111,8.682,40.517,8.682c13.025,0,15.555-5.064,15.555-13.385V718.705h30.75V1012.811z M594.286,969.039V748.366
		h30.75v220.673H594.286z M703.9,492.615h-56.439v162.428c0,21.707-14.828,39.793-52.814,39.793
		c-18.813,0-41.966-3.979-70.179-12.297l0.721-32.199c17.725,4.703,50.284,13.746,65.118,13.746c14.107,0,26.41-3.615,26.41-17.001
		v-154.47H487.57v-30.75H703.9V492.615z M910.78,376.128l26.05,16.64c-18.452,29.304-37.986,51.369-59.33,66.203
		c-5.428-10.491-10.849-18.813-17.004-23.877C881.479,420.263,898.483,400.365,910.78,376.128z M863.033,555.921
		c-1.809,26.047-5.067,47.39-8.685,63.669l-25.322-5.788c5.067-24.962,7.958-45.941,7.958-61.86L863.033,555.921z M800.445,364.912
		l27.859,1.809l-2.17,5.428c13.746,10.852,28.213,20.983,43.408,30.026l-20.982,22.789c-12.658-9.767-24.601-19.895-35.811-30.746
		c-15.194,17.001-34.368,33.644-57.16,48.835l-25.683-19.174C766.444,403.62,790.678,383.725,800.445,364.912z M788.508,646.722
		V534.216h-46.665v-29.304h46.665v-30.025h-34.007v-29.301h98.038v29.301h-34.729v30.025h41.605v29.304h-41.605v107.08
		c18.092-3.979,33.647-8.321,46.305-13.025l10.495,28.941c-31.11,9.767-75.973,18.813-133.855,24.961l-8.318-30.386L788.508,646.722
		z M739.312,555.199l27.492-2.897c6.148,39.072,9.767,66.203,10.127,79.949l-27.852,1.085
		C748.352,611.272,745.1,584.861,739.312,555.199z M1038.119,1048.628h-32.192v-15.919H793.575v15.919h-31.838V906.819
		c0-7.237,3.258-10.855,10.855-10.855h254.317c7.598,0,11.209,3.619,11.209,10.855V1048.628z M1036.316,853.641
		c-10.855,11.212-28.58,20.255-59.33,20.255c-17.725,0-38.347-2.891-62.221-8.679l2.17-35.092
		c23.513,7.237,43.047,10.852,58.603,10.852c38.347,0,45.217-17.725,45.217-70.179c0-6.152-0.36-9.767-1.082-11.216l-3.258-1.085
		H896.313c-2.53,11.576-6.509,22.789-11.937,34.005l-8.325,15.555c-23.513,37.262-67.282,63.67-130.951,78.864l-11.943-32.195
		c47.032-10.855,115.041-27.495,130.596-96.229H747.27v-30.75h295.555c8.679,1.445,11.216,1.809,11.216,18.449
		C1054.041,822.891,1048.974,840.976,1036.316,853.641z M1056.572,662.276c0,7.961-1.809,33.283-41.238,33.283
		c-10.494,0-23.519-1.445-38.347-4.703v-32.559c15.194,4.703,26.404,7.237,34.001,7.237c13.385,0,16.283-10.131,16.283-15.195
		v-34.004H909.699v76.691h-29.301V470.908c0-4.34,2.53-6.873,6.87-6.873h62.948V363.467h30.75v100.568h68.369
		c4.707,0,7.237,2.534,7.237,6.873V662.276z M1041.016,453.183c-11.215-19.173-25.683-40.156-43.414-61.499l23.88-16.279
		c19.895,24.961,34.729,46.305,44.496,63.309L1041.016,453.183z"/>
</g>
</svg>
